<?xml version="1.0" encoding="utf-8"?>
<!-- Generator: Adobe Illustrator 21.0.2, SVG Export Plug-In . SVG Version: 6.00 Build 0)  -->
<!DOCTYPE svg PUBLIC "-//W3C//DTD SVG 1.1//EN" "http://www.w3.org/Graphics/SVG/1.1/DTD/svg11.dtd">
<svg version="1.1" id="Layer_1" xmlns="http://www.w3.org/2000/svg" xmlns:xlink="http://www.w3.org/1999/xlink" x="0px" y="0px"
	 viewBox="0 0 1195.3 476.7" style="enable-background:new 0 0 1195.3 476.7;" xml:space="preserve">
<style type="text/css">
	.st0{display:none;}
	.st1{fill:none;}
	.st2{fill:none;stroke:#000000;stroke-width:4;stroke-linecap:round;stroke-linejoin:round;stroke-miterlimit:10;}
	.st3{display:inline;}
	.st4{font-family:'Quicksand-Bold';}
	.st5{font-size:82.2113px;}
	.st6{letter-spacing:3;}
</style>
<g id="Square_Variations">
</g>
<g id="Horizontal_Variations">
</g>
<g id="ELMS_Square_Logo">
	<g id="GUIDES_1_" class="st0">
	</g>
</g>
<g id="ELMS_Horizontal_Logo">
	<rect id="REGISTRATION_1_" class="st1" width="1195.3" height="476.1"/>
	<g id="TYPE_W_x2F__Variations">
		<g id="SUB_PROJECT_multiline">
			<line id="DIVIDER_1_" class="st2" x1="431.8" y1="159" x2="431.8" y2="317"/>
		</g>
		<g id="SUB_PROJECT_Single_line_copy" class="st0">
			<text transform="matrix(1 0 0 1 485.4649 267.3203)" class="st3 st4 st5 st6">cis</text>
		</g>
		<g id="ELMS_TYPE">
			<g id="ELMS_1_">
				<path d="M545.3,286.4H494c-1.1,0-1.6-0.6-1.6-1.8V192c0-1,0.5-1.6,1.6-1.8h51.3c1.1,0,1.6,0.6,1.6,1.7c0,1.1-0.5,1.7-1.6,1.7
					h-49.5v42.9h43.6c1.1,0,1.6,0.6,1.6,1.7c0,1.1-0.5,1.7-1.6,1.7h-43.6v43h49.5c1.1,0,1.6,0.6,1.6,1.7
					C547,285.8,546.4,286.4,545.3,286.4z"/>
				<path d="M654.4,286.4h-51.3c-1.2,0-1.8-0.6-1.8-1.8V192c0-1.2,0.6-1.8,1.7-1.8c1.1,0,1.7,0.6,1.7,1.8v91h49.6
					c1.2,0,1.8,0.6,1.8,1.7C656.2,285.8,655.6,286.4,654.4,286.4z"/>
				<path d="M783.2,284.6v-87.4l-35,48.8c-0.5,0.5-1,0.7-1.5,0.7h-0.3c-0.7,0-1.2-0.2-1.5-0.7l-35.2-49v87.6c0,1.2-0.6,1.8-1.7,1.8
					c-1.1,0-1.7-0.6-1.7-1.8v-92.5c0-0.5,0.2-0.9,0.5-1.2c0.4-0.4,0.7-0.5,1.1-0.5c0.5,0,1.1,0.2,1.8,0.7l36.8,51.1l36.8-51.1
					c0.5-0.5,1-0.7,1.5-0.7c1.2,0,1.8,0.6,1.8,1.8v92.5c0,1.2-0.6,1.8-1.8,1.8c-0.5,0-0.8-0.2-1.2-0.5
					C783.4,285.5,783.2,285,783.2,284.6z"/>
				<path d="M851.5,278.3c-3.3-2-5.4-3.5-6.4-4.5s-1.3-1.8-1.1-2.4s0.6-1.1,1.2-1.2c0.5-0.2,1.1,0,1.8,0.6c0.6,0.6,2.1,1.7,4.3,3.4
					c2.2,1.6,6.2,3.6,12,6c5.7,2.3,11.4,3.5,17,3.5c9.3,0,17.1-2.3,23.4-6.9c6.4-4.6,9.6-10.2,9.6-16.9c0-5.2-1.5-9.2-4.5-11.8
					c-1.6-1.5-3.2-2.7-4.7-3.6c-1.5-1-3.6-1.9-6.5-2.8c-3.3-1.1-7.4-2.2-12.4-3.4s-8.4-2-10.2-2.5s-4.3-1.3-7.3-2.3
					s-5.3-2.1-6.9-3.2c-1.6-1.1-3.3-2.5-5.2-4.1c-3.3-3.1-4.9-7.7-4.9-13.8s2.9-11.4,8.7-15.9s12.9-6.7,21.1-6.7
					c9.1,0,17.2,2.5,24.3,7.4c2.6,1.7,4.2,3.2,4.9,4.3c0.7,0.8,0.7,1.6-0.1,2.5c-1,0.6-1.8,0.6-2.5-0.1c-7-7-15.9-10.4-26.7-10.4
					c-7.2,0-13.4,1.9-18.6,5.6c-5.1,3.8-7.7,8.3-7.7,13.6c0,5,1.9,9.3,5.8,12.9c2.8,2.6,7.8,4.8,14.8,6.6c2,0.5,4.9,1.3,8.7,2.1
					c3.8,0.9,6.6,1.6,8.5,2.1s4.4,1.3,7.4,2.3c3.1,1,5.4,2.1,7.1,3.2c1.6,1.1,3.3,2.6,5.1,4.3c3.4,3.1,5.1,7.7,5.1,13.9
					c0,7.6-3.5,14-10.5,19.3s-15.5,7.9-25.4,7.9C870.8,287.1,861.1,284.1,851.5,278.3z"/>
			</g>
			<g id="LN">
				<path d="M982.9,266.2c-1.3,0-2.3-0.4-3.2-1.3s-1.3-1.9-1.3-3.2v-48.5c0-1.3,0.4-2.3,1.3-3.2c0.9-0.9,1.9-1.3,3.2-1.3
					s2.3,0.4,3.2,1.3c0.9,0.9,1.4,1.9,1.4,3.2v43.9h22.3c1.2,0,2.3,0.5,3.2,1.4s1.4,2,1.4,3.2s-0.5,2.3-1.4,3.2s-2,1.4-3.2,1.4
					h-26.9V266.2z"/>
				<path d="M1039.4,227.6v34.1c0,1.2-0.4,2.3-1.3,3.2c-0.9,0.9-1.9,1.4-3.2,1.4c-1.2,0-2.3-0.4-3.2-1.3c-0.9-0.9-1.3-1.9-1.3-3.2
					V214c-0.1-1.6,0.4-2.8,1.6-3.6s2.4-1.1,3.6-0.9c1.2,0.2,2.2,0.8,2.9,1.8l26.6,36.7v-34c0-1.2,0.4-2.2,1.3-3.1
					c0.9-0.9,1.9-1.3,3.1-1.3s2.3,0.4,3.2,1.3c0.9,0.9,1.4,1.9,1.4,3.1v47.8c0,1.3-0.5,2.3-1.4,3.2c-0.9,0.9-2,1.3-3.2,1.3
					c-1.3,0-2.4-0.5-3.3-1.6c-0.2-0.2-0.4-0.4-0.4-0.5L1039.4,227.6z"/>
			</g>
		</g>
	</g>
	<g id="ICON_2_">
		<g>
			<path d="M319.3,211.6l13.5,7.8c3.8,2.2,8.4,2.2,12.2,0l20.1-11.6c3.8-2.2,6.1-6.2,6.1-10.6V174c0-4.4-2.3-8.4-6.1-10.6L345,152
				c-3.8-2.2-8.4-2.2-12.2,0l-20.1,11.6c-3.8,2.2-6.1,6.2-6.1,10.6v15.4c0,4.4-2.3,8.4-6.1,10.6l-29.3,16.9c-3.8,2.2-8.4,2.2-12.2,0
				l-0.1-0.1c-3.8-2.2-6.1-6.2-6.1-10.6V171c0-4.4,2.3-8.4,6.1-10.6l13.4-7.7c3.8-2.2,6.1-6.2,6.1-10.6v-23.2
				c0-4.4-2.3-8.4-6.1-10.6l-20.1-11.6c-3.8-2.2-8.4-2.2-12.2,0l-20,11.7c-3.8,2.2-6.1,6.2-6.1,10.6v23.2c0,4.4,2.3,8.4,6.1,10.6
				l13.4,7.7c3.8,2.2,6.1,6.2,6.1,10.6v35.4c0,4.4-2.3,8.4-6.1,10.6l0,0c-3.8,2.2-8.4,2.2-12.2,0l-29.4-17
				c-3.8-2.2-6.1-6.2-6.1-10.6V174c0-4.4-2.3-8.4-6.1-10.6l-20.1-11.6c-3.8-2.2-8.4-2.2-12.2,0l-20.1,11.6
				c-3.8,2.2-6.1,6.2-6.1,10.6v23.2c0,4.4,2.3,8.4,6.1,10.6l20.1,11.6c3.8,2.2,8.4,2.2,12.2,0l13.5-7.8c3.8-2.2,8.4-2.2,12.2,0
				l29.3,16.9c3.8,2.2,6.1,6.2,6.1,10.6l0,0c0,4.4-2.3,8.4-6.1,10.6l-29.3,16.9c-3.8,2.2-8.4,2.2-12.2,0l-13.4-7.7
				c-3.8-2.2-8.4-2.2-12.2,0l-20.1,11.6c-3.8,2.2-6.1,6.2-6.1,10.6v23.2c0,4.4,2.3,8.4,6.1,10.6l20.1,11.6c3.8,2.2,8.4,2.2,12.2,0
				l20.1-11.6c3.8-2.2,6.1-6.2,6.1-10.6v-15.5c0-4.4,2.3-8.4,6.1-10.6l29.2-16.8c3.8-2.2,8.4-2.2,12.2,0l0.1,0.1
				c3.8,2.2,6.1,6.2,6.1,10.6v33.7c0,4.4-2.3,8.4-6.1,10.6l-13.4,7.7c-3.8,2.2-6.1,6.2-6.1,10.6v23.2c0,4.4,2.3,8.4,6.1,10.6
				l20.1,11.6c3.8,2.2,8.4,2.2,12.2,0l20.1-11.6c3.8-2.2,6.1-6.2,6.1-10.6v-23.2c0-4.4-2.3-8.4-6.1-10.6l-13.4-7.7
				c-3.8-2.2-6.1-6.2-6.1-10.6V272c0-4.4,2.3-8.4,6.1-10.6l0.2-0.1c3.8-2.2,8.4-2.2,12.2,0l29.1,16.8c3.8,2.2,6.1,6.2,6.1,10.6v15.5
				c0,4.4,2.3,8.4,6.1,10.6l20.1,11.6c3.8,2.2,8.4,2.2,12.2,0l20.1-11.6c3.8-2.2,6.1-6.2,6.1-10.6V281c0-4.4-2.3-8.4-6.1-10.6
				L345,258.8c-3.8-2.2-8.4-2.2-12.2,0l-13.4,7.7c-3.8,2.2-8.4,2.2-12.2,0L278,249.8c-3.8-2.2-6.1-6.2-6.1-10.6V239
				c0-4.4,2.3-8.4,6.1-10.6l29.1-16.8C310.8,209.4,315.5,209.4,319.3,211.6z M172.5,192.9c0,2.3-1.2,4.4-3.2,5.6l-3.4,2l-9.1,5.3
				c-2,1.2-4.4,1.2-6.4,0l-12.5-7.2c-2-1.2-3.2-3.3-3.2-5.6v-14.5c0-2.3,1.2-4.4,3.2-5.6l12.5-7.2c2-1.2,4.5-1.2,6.4,0l12.5,7.2
				c2,1.2,3.2,3.3,3.2,5.6v10.4V192.9z M357.7,285.3v14.5c0,2.3-1.2,4.4-3.2,5.6l-12.5,7.2c-2,1.2-4.4,1.2-6.4,0l-12.5-7.2
				c-2-1.2-3.2-3.3-3.2-5.6v-10.5v-4c0-2.3,1.2-4.4,3.2-5.6l3.4-2l9.1-5.2c2-1.2,4.5-1.2,6.4,0l12.5,7.2
				C356.5,280.9,357.7,283,357.7,285.3z M323.1,172.9l12.5-7.2c2-1.2,4.5-1.2,6.4,0l12.5,7.2c2,1.2,3.2,3.3,3.2,5.6V193
				c0,2.3-1.2,4.4-3.2,5.6l-12.5,7.2c-2,1.2-4.4,1.2-6.4,0l-9.2-5.3l-3.3-1.9c-2-1.2-3.2-3.3-3.2-5.6v-4.1v-10.4
				C319.9,176.2,321.1,174,323.1,172.9z M230.5,117.7l12.5-7.2c2-1.2,4.5-1.2,6.4,0l12.5,7.2c2,1.2,3.2,3.3,3.2,5.6v14.5
				c0,2.3-1.2,4.4-3.2,5.6l-9.1,5.2l-3.4,2c-2,1.2-4.4,1.2-6.4,0l-3.4-2l-9.1-5.2c-2-1.2-3.2-3.3-3.2-5.6v-14.5
				C227.2,121,228.5,118.9,230.5,117.7z M172.6,289.3v10.5c0,2.3-1.2,4.4-3.2,5.6l-12.5,7.2c-2,1.2-4.4,1.2-6.4,0l-12.5-7.2
				c-2-1.2-3.2-3.3-3.2-5.6v-14.5c0-2.3,1.2-4.4,3.2-5.6l12.5-7.2c2-1.2,4.5-1.2,6.4,0l9.1,5.2l3.4,2c2,1.2,3.2,3.3,3.2,5.6V289.3z
				 M261.9,358.8l-12.5,7.2c-2,1.2-4.4,1.2-6.4,0l-12.5-7.2c-2-1.2-3.2-3.3-3.2-5.6v-14.5c0-2.3,1.2-4.4,3.2-5.6l9.1-5.2l3.4-2
				c2-1.2,4.5-1.2,6.4,0l3.4,2l9.1,5.2c2,1.2,3.2,3.3,3.2,5.6v14.5C265.2,355.5,263.9,357.6,261.9,358.8z"/>
		</g>
	</g>
	<g id="GUIDES" class="st0">
		<g id="bounds" class="st3">
		</g>
		<g id="divisions" class="st3">
		</g>
		<g id="vertical_spacing" class="st3">
		</g>
		<g id="crop_guides" class="st3">
		</g>
	</g>
</g>
</svg>
