<?xml version="1.0" encoding="utf-8"?>
<!-- Generator: Adobe Illustrator 18.1.1, SVG Export Plug-In . SVG Version: 6.00 Build 0)  -->
<!DOCTYPE svg PUBLIC "-//W3C//DTD SVG 1.1//EN" "http://www.w3.org/Graphics/SVG/1.1/DTD/svg11.dtd">
<svg version="1.1" xmlns="http://www.w3.org/2000/svg" xmlns:xlink="http://www.w3.org/1999/xlink" x="0px" y="0px"
	 viewBox="0 0 1030.5 435.6" style="enable-background:new 0 0 1030.5 435.6;" xml:space="preserve">
<style type="text/css">
	.st0{fill:#636363;}
	.st1{fill:#FFFFFF;}
	.st2{fill:url(#SVGID_1_);}
	.st3{fill:url(#SVGID_2_);}
	.st4{fill:url(#SVGID_3_);}
	.st5{fill:url(#SVGID_4_);}
	.st6{fill:none;}
	.st7{display:none;}
	.st8{display:inline;}
	.st9{display:inline;fill:none;stroke:#000000;stroke-width:4;stroke-linecap:round;stroke-linejoin:round;stroke-miterlimit:10;}
</style>
<g id="Square_Variations">
</g>
<g id="Horizontal_Variations">
</g>
<g id="ELMS_Square_Logo">
	<g id="GUIDES_1_" class="st7">
	</g>
</g>
<g id="ELMS_Horizontal_Logo">
	<g id="TYPE_W_x2F__Variations">
		<g id="SUB_PROJECT_multiline" class="st7">
		</g>
		<g id="SUB_PROJECT_Single_line_copy" class="st7">
		</g>
	</g>
	<g id="GUIDES" class="st7">
		<g id="bounds" class="st8">
		</g>
		<g id="divisions" class="st8">
		</g>
		<g id="vertical_spacing" class="st8">
		</g>
		<g id="crop_guides" class="st8">
		</g>
	</g>
</g>
<g id="Network_Icon">
	<g id="TYPE_1_">
		<g id="ELMS_6_">
			<path d="M277.4,265.8h-51.3c-1.1,0-1.6-0.6-1.6-1.8v-92.6c0-1,0.5-1.6,1.6-1.8h51.3c1.1,0,1.6,0.6,1.6,1.7c0,1.1-0.5,1.7-1.6,1.7
				h-49.5v42.9h43.6c1.1,0,1.6,0.6,1.6,1.7c0,1.1-0.5,1.7-1.6,1.7h-43.6v43h49.5c1.1,0,1.6,0.6,1.6,1.7
				C279,265.3,278.5,265.8,277.4,265.8z"/>
			<path d="M386.5,265.8h-51.3c-1.2,0-1.8-0.6-1.8-1.8v-92.6c0-1.2,0.6-1.8,1.7-1.8c1.1,0,1.7,0.6,1.7,1.8v91h49.6
				c1.2,0,1.8,0.6,1.8,1.7C388.3,265.3,387.7,265.8,386.5,265.8z"/>
			<path d="M515.3,264v-87.4l-35,48.8c-0.5,0.5-1,0.7-1.5,0.7h-0.3c-0.7,0-1.2-0.2-1.5-0.7l-35.2-48.9V264c0,1.2-0.6,1.8-1.7,1.8
				c-1.1,0-1.7-0.6-1.7-1.8v-92.5c0-0.5,0.2-0.9,0.5-1.2c0.4-0.4,0.7-0.5,1.1-0.5c0.5,0,1.1,0.2,1.8,0.7l36.8,51.1l36.8-51.1
				c0.5-0.5,1-0.7,1.5-0.7c1.2,0,1.8,0.6,1.8,1.8V264c0,1.2-0.6,1.8-1.8,1.8c-0.5,0-0.8-0.2-1.2-0.5
				C515.4,264.9,515.3,264.5,515.3,264z"/>
			<path d="M583.6,257.7c-3.3-2-5.4-3.5-6.4-4.5c-1-1-1.3-1.8-1.1-2.4c0.2-0.6,0.6-1.1,1.2-1.2c0.5-0.2,1.1,0,1.8,0.6
				c0.6,0.6,2.1,1.7,4.3,3.4c2.2,1.6,6.2,3.6,12,6c5.7,2.3,11.4,3.5,17,3.5c9.3,0,17.1-2.3,23.4-6.9c6.4-4.6,9.6-10.2,9.6-16.9
				c0-5.2-1.5-9.2-4.5-11.8c-1.6-1.5-3.2-2.7-4.7-3.6c-1.5-1-3.6-1.9-6.5-2.8c-3.3-1.1-7.4-2.2-12.4-3.4c-5-1.2-8.4-2-10.2-2.5
				c-1.8-0.5-4.3-1.3-7.3-2.3c-3-1-5.3-2.1-6.9-3.2c-1.6-1.1-3.3-2.5-5.2-4.1c-3.3-3.1-4.9-7.7-4.9-13.8c0-6.1,2.9-11.4,8.7-15.9
				c5.8-4.5,12.9-6.7,21.1-6.7c9.1,0,17.2,2.5,24.3,7.4c2.6,1.7,4.2,3.2,4.9,4.3c0.7,0.8,0.7,1.6-0.1,2.5c-1,0.6-1.8,0.6-2.5-0.1
				c-7-7-15.9-10.4-26.7-10.4c-7.2,0-13.4,1.9-18.6,5.6c-5.1,3.8-7.7,8.3-7.7,13.6c0,5,1.9,9.3,5.8,12.9c2.8,2.6,7.8,4.8,14.8,6.6
				c2,0.5,4.9,1.3,8.7,2.1c3.8,0.9,6.6,1.6,8.5,2.1c1.9,0.5,4.4,1.3,7.4,2.3c3.1,1,5.4,2.1,7.1,3.2c1.6,1.1,3.3,2.6,5.1,4.3
				c3.4,3.1,5.1,7.7,5.1,13.9c0,7.6-3.5,14-10.5,19.3c-7,5.3-15.5,7.9-25.4,7.9C602.9,266.5,593.1,263.6,583.6,257.7z"/>
		</g>
		<g id="LN_5_">
			<path d="M715,245.7c-1.3,0-2.3-0.4-3.2-1.3c-0.9-0.9-1.3-1.9-1.3-3.2v-48.5c0-1.3,0.4-2.3,1.3-3.2c0.9-0.9,1.9-1.3,3.2-1.3
				s2.3,0.4,3.2,1.3c0.9,0.9,1.4,1.9,1.4,3.2v43.9h22.3c1.2,0,2.3,0.5,3.2,1.4s1.4,2,1.4,3.2s-0.5,2.3-1.4,3.2s-2,1.4-3.2,1.4H715z"
				/>
			<path d="M771.4,207.1v34.1c0,1.2-0.4,2.3-1.3,3.2c-0.9,0.9-1.9,1.4-3.2,1.4c-1.2,0-2.3-0.4-3.2-1.3c-0.9-0.9-1.3-1.9-1.3-3.2
				v-47.8c-0.1-1.6,0.4-2.8,1.6-3.6c1.2-0.8,2.4-1.1,3.6-0.9c1.2,0.2,2.2,0.8,2.9,1.8l26.6,36.7v-33.9c0-1.2,0.4-2.2,1.3-3.1
				c0.9-0.9,1.9-1.3,3.1-1.3c1.2,0,2.3,0.4,3.2,1.3c0.9,0.9,1.4,1.9,1.4,3.1v47.8c0,1.3-0.5,2.3-1.4,3.2c-0.9,0.9-2,1.3-3.2,1.3
				c-1.3,0-2.4-0.5-3.3-1.6c-0.2-0.2-0.4-0.4-0.4-0.5L771.4,207.1z"/>
		</g>
	</g>
</g>
</svg>
