<?xml version="1.0" encoding="utf-8"?>
<!-- Generator: Adobe Illustrator 18.1.1, SVG Export Plug-In . SVG Version: 6.00 Build 0)  -->
<!DOCTYPE svg PUBLIC "-//W3C//DTD SVG 1.1//EN" "http://www.w3.org/Graphics/SVG/1.1/DTD/svg11.dtd">
<svg version="1.1" xmlns="http://www.w3.org/2000/svg" xmlns:xlink="http://www.w3.org/1999/xlink" x="0px" y="0px"
	 viewBox="0 0 1014.1 857.3" style="enable-background:new 0 0 1014.1 857.3;" xml:space="preserve">
<style type="text/css">
	.st0{fill:#636363;}
	.st1{fill:#FFFFFF;}
	.st2{fill:url(#SVGID_1_);}
	.st3{fill:url(#SVGID_2_);}
	.st4{fill:url(#SVGID_3_);}
	.st5{fill:url(#SVGID_4_);}
	.st6{fill:none;}
	.st7{display:none;}
	.st8{display:inline;}
	.st9{display:inline;fill:none;stroke:#000000;stroke-width:4;stroke-linecap:round;stroke-linejoin:round;stroke-miterlimit:10;}
</style>
<g id="Square_Variations">
</g>
<g id="Horizontal_Variations">
</g>
<g id="ELMS_Square_Logo">
	<rect id="REGISTRATION" x="0" y="0" class="st6" width="1014.1" height="857.3"/>
	<g id="TYPE_8_">
		<g id="ELMS_2_">
			<path d="M269.2,667.3h-51.3c-1.1,0-1.6-0.6-1.6-1.8v-92.6c0-1,0.5-1.6,1.6-1.8h51.3c1.1,0,1.6,0.6,1.6,1.7c0,1.1-0.5,1.7-1.6,1.7
				h-49.5v42.9h43.6c1.1,0,1.6,0.6,1.6,1.7c0,1.1-0.5,1.7-1.6,1.7h-43.6v43h49.5c1.1,0,1.6,0.6,1.6,1.7
				C270.8,666.8,270.3,667.3,269.2,667.3z"/>
			<path d="M378.3,667.3H327c-1.2,0-1.8-0.6-1.8-1.8v-92.6c0-1.2,0.6-1.8,1.7-1.8c1.1,0,1.7,0.6,1.7,1.8v91h49.6
				c1.2,0,1.8,0.6,1.8,1.7C380.1,666.8,379.5,667.3,378.3,667.3z"/>
			<path d="M507.1,665.6v-87.4l-35,48.8c-0.5,0.5-1,0.7-1.5,0.7h-0.3c-0.7,0-1.2-0.2-1.5-0.7L433.5,578v87.6c0,1.2-0.6,1.8-1.7,1.8
				c-1.1,0-1.7-0.6-1.7-1.8v-92.5c0-0.5,0.2-0.9,0.5-1.2c0.4-0.4,0.7-0.5,1.1-0.5c0.5,0,1.1,0.2,1.8,0.7l36.8,51.1l36.8-51.1
				c0.5-0.5,1-0.7,1.5-0.7c1.2,0,1.8,0.6,1.8,1.8v92.5c0,1.2-0.6,1.8-1.8,1.8c-0.5,0-0.8-0.2-1.2-0.5
				C507.2,666.4,507.1,666,507.1,665.6z"/>
			<path d="M575.4,659.2c-3.3-2-5.4-3.5-6.4-4.5c-1-1-1.3-1.8-1.1-2.4c0.2-0.6,0.6-1.1,1.2-1.2c0.5-0.2,1.1,0,1.8,0.6
				c0.6,0.6,2.1,1.7,4.3,3.4c2.2,1.6,6.2,3.6,12,6c5.7,2.3,11.4,3.5,17,3.5c9.3,0,17.1-2.3,23.4-6.9c6.4-4.6,9.6-10.2,9.6-16.9
				c0-5.2-1.5-9.2-4.5-11.8c-1.6-1.5-3.2-2.7-4.7-3.6c-1.5-1-3.6-1.9-6.5-2.8c-3.3-1.1-7.4-2.2-12.4-3.4c-5-1.2-8.4-2-10.2-2.5
				c-1.8-0.5-4.3-1.3-7.3-2.3c-3-1-5.3-2.1-6.9-3.2c-1.6-1.1-3.3-2.5-5.2-4.1c-3.3-3.1-4.9-7.7-4.9-13.8c0-6.1,2.9-11.4,8.7-15.9
				c5.8-4.5,12.9-6.7,21.1-6.7c9.1,0,17.2,2.5,24.3,7.4c2.6,1.7,4.2,3.2,4.9,4.3c0.7,0.8,0.7,1.6-0.1,2.5c-1,0.6-1.8,0.6-2.5-0.1
				c-7-7-15.9-10.4-26.7-10.4c-7.2,0-13.4,1.9-18.6,5.6c-5.1,3.8-7.7,8.3-7.7,13.6c0,5,1.9,9.3,5.8,12.9c2.8,2.6,7.8,4.8,14.8,6.6
				c2,0.5,4.9,1.3,8.7,2.1c3.8,0.9,6.6,1.6,8.5,2.1c1.9,0.5,4.4,1.3,7.4,2.3c3.1,1,5.4,2.1,7.1,3.2c1.6,1.1,3.3,2.6,5.1,4.3
				c3.4,3.1,5.1,7.7,5.1,13.9c0,7.6-3.5,14-10.5,19.3c-7,5.3-15.5,7.9-25.4,7.9C594.7,668,584.9,665.1,575.4,659.2z"/>
		</g>
		<g id="LN_1_">
			<path d="M706.8,647.2c-1.3,0-2.3-0.4-3.2-1.3c-0.9-0.9-1.3-1.9-1.3-3.2v-48.5c0-1.3,0.4-2.3,1.3-3.2c0.9-0.9,1.9-1.3,3.2-1.3
				s2.3,0.4,3.2,1.3c0.9,0.9,1.4,1.9,1.4,3.2v43.9h22.3c1.2,0,2.3,0.5,3.2,1.4s1.4,2,1.4,3.2s-0.5,2.3-1.4,3.2s-2,1.4-3.2,1.4H706.8
				z"/>
			<path d="M763.2,608.6v34.1c0,1.2-0.4,2.3-1.3,3.2c-0.9,0.9-1.9,1.4-3.2,1.4c-1.2,0-2.3-0.4-3.2-1.3c-0.9-0.9-1.3-1.9-1.3-3.2
				v-47.8c-0.1-1.6,0.4-2.8,1.6-3.6c1.2-0.8,2.4-1.1,3.6-0.9c1.2,0.2,2.2,0.8,2.9,1.8l26.6,36.7v-33.9c0-1.2,0.4-2.2,1.3-3.1
				c0.9-0.9,1.9-1.3,3.1-1.3c1.2,0,2.3,0.4,3.2,1.3c0.9,0.9,1.4,1.9,1.4,3.1v47.8c0,1.3-0.5,2.3-1.4,3.2c-0.9,0.9-2,1.3-3.2,1.3
				c-1.3,0-2.4-0.5-3.3-1.6c-0.2-0.2-0.4-0.4-0.4-0.5L763.2,608.6z"/>
		</g>
	</g>
	<g id="ICON_3_">
		<g>
			<path d="M580.1,306.4l13.5,7.8c3.8,2.2,8.4,2.2,12.2,0l20.1-11.6c3.8-2.2,6.1-6.2,6.1-10.6v-23.2c0-4.4-2.3-8.4-6.1-10.6
				l-20.1-11.6c-3.8-2.2-8.4-2.2-12.2,0l-20.1,11.6c-3.8,2.2-6.1,6.2-6.1,10.6v15.4c0,4.4-2.3,8.4-6.1,10.6l-29.3,16.9
				c-3.8,2.2-8.4,2.2-12.2,0l-0.1-0.1c-3.8-2.2-6.1-6.2-6.1-10.6v-35.3c0-4.4,2.3-8.4,6.1-10.6l13.4-7.7c3.8-2.2,6.1-6.2,6.1-10.6
				v-23.2c0-4.4-2.3-8.4-6.1-10.6l-20.1-11.6c-3.8-2.2-8.4-2.2-12.2,0l-20.1,11.6c-3.8,2.2-6.1,6.2-6.1,10.6v23.2
				c0,4.4,2.3,8.4,6.1,10.6l13.4,7.7c3.8,2.2,6.1,6.2,6.1,10.6v35.4c0,4.4-2.3,8.4-6.1,10.6v0c-3.8,2.2-8.4,2.2-12.2,0l-29.4-17
				c-3.8-2.2-6.1-6.2-6.1-10.6v-15.4c0-4.4-2.3-8.4-6.1-10.6l-20.1-11.6c-3.8-2.2-8.4-2.2-12.2,0l-20.1,11.6
				c-3.8,2.2-6.1,6.2-6.1,10.6V292c0,4.4,2.3,8.4,6.1,10.6l20.1,11.6c3.8,2.2,8.4,2.2,12.2,0l13.5-7.8c3.8-2.2,8.4-2.2,12.2,0
				l29.3,16.9c3.8,2.2,6.1,6.2,6.1,10.6v0c0,4.4-2.3,8.4-6.1,10.6l-29.3,16.9c-3.8,2.2-8.4,2.2-12.2,0l-13.4-7.7
				c-3.8-2.2-8.4-2.2-12.2,0l-20.1,11.6c-3.8,2.2-6.1,6.2-6.1,10.6v23.2c0,4.4,2.3,8.4,6.1,10.6l20.1,11.6c3.8,2.2,8.4,2.2,12.2,0
				l20.1-11.6c3.8-2.2,6.1-6.2,6.1-10.6v-15.5c0-4.4,2.3-8.4,6.1-10.6L482,356c3.8-2.2,8.4-2.2,12.2,0l0.1,0.1
				c3.8,2.2,6.1,6.2,6.1,10.6v33.7c0,4.4-2.3,8.4-6.1,10.6l-13.4,7.7c-3.8,2.2-6.1,6.2-6.1,10.6v23.2c0,4.4,2.3,8.4,6.1,10.6
				l20.1,11.6c3.8,2.2,8.4,2.2,12.2,0l20.1-11.6c3.8-2.2,6.1-6.2,6.1-10.6v-23.2c0-4.4-2.3-8.4-6.1-10.6l-13.4-7.7
				c-3.8-2.2-6.1-6.2-6.1-10.6v-33.6c0-4.4,2.3-8.4,6.1-10.6l0.2-0.1c3.8-2.2,8.4-2.2,12.2,0l29.1,16.8c3.8,2.2,6.1,6.2,6.1,10.6
				v15.5c0,4.4,2.3,8.4,6.1,10.6l20.1,11.6c3.8,2.2,8.4,2.2,12.2,0l20.1-11.6c3.8-2.2,6.1-6.2,6.1-10.6v-23.2
				c0-4.4-2.3-8.4-6.1-10.6l-20.1-11.6c-3.8-2.2-8.4-2.2-12.2,0l-13.4,7.7c-3.8,2.2-8.4,2.2-12.2,0l-29.1-16.8
				c-3.8-2.2-6.1-6.2-6.1-10.6v-0.2c0-4.4,2.3-8.4,6.1-10.6l29.1-16.8C571.7,304.2,576.3,304.2,580.1,306.4z M433.3,287.7
				c0,2.3-1.2,4.4-3.2,5.6l-3.4,2l-9.1,5.3c-2,1.2-4.4,1.2-6.4,0l-12.5-7.2c-2-1.2-3.2-3.3-3.2-5.6v-14.5c0-2.3,1.2-4.4,3.2-5.6
				l12.5-7.2c2-1.2,4.5-1.2,6.4,0l12.5,7.2c2,1.2,3.2,3.3,3.2,5.6v10.4V287.7z M618.6,380.1v14.5c0,2.3-1.2,4.4-3.2,5.6l-12.5,7.2
				c-2,1.2-4.4,1.2-6.4,0l-12.5-7.2c-2-1.2-3.2-3.3-3.2-5.6v-10.5v-4c0-2.3,1.2-4.4,3.2-5.6l3.4-2l9.1-5.2c2-1.2,4.5-1.2,6.4,0
				l12.5,7.2C617.4,375.7,618.6,377.8,618.6,380.1z M584,267.7l12.5-7.2c2-1.2,4.5-1.2,6.4,0l12.5,7.2c2,1.2,3.2,3.3,3.2,5.6v14.5
				c0,2.3-1.2,4.4-3.2,5.6l-12.5,7.2c-2,1.2-4.4,1.2-6.4,0l-9.2-5.3l-3.3-1.9c-2-1.2-3.2-3.3-3.2-5.6v-4.1v-10.4
				C580.8,271,582,268.8,584,267.7z M491.3,212.5l12.5-7.2c2-1.2,4.5-1.2,6.4,0l12.5,7.2c2,1.2,3.2,3.3,3.2,5.6v14.5
				c0,2.3-1.2,4.4-3.2,5.6l-9.1,5.2l-3.4,2c-2,1.2-4.4,1.2-6.4,0l-3.4-2l-9.1-5.2c-2-1.2-3.2-3.3-3.2-5.6v-14.5
				C488.1,215.8,489.3,213.7,491.3,212.5z M433.4,384.1v10.5c0,2.3-1.2,4.4-3.2,5.6l-12.5,7.2c-2,1.2-4.4,1.2-6.4,0l-12.5-7.2
				c-2-1.2-3.2-3.3-3.2-5.6v-14.5c0-2.3,1.2-4.4,3.2-5.6l12.5-7.2c2-1.2,4.5-1.2,6.4,0l9.1,5.2l3.4,2c2,1.2,3.2,3.3,3.2,5.6V384.1z
				 M522.8,453.6l-12.5,7.2c-2,1.2-4.4,1.2-6.4,0l-12.5-7.2c-2-1.2-3.2-3.3-3.2-5.6v-14.5c0-2.3,1.2-4.4,3.2-5.6l9.1-5.2l3.4-2
				c2-1.2,4.5-1.2,6.4,0l3.4,2l9.1,5.2c2,1.2,3.2,3.3,3.2,5.6V448C526,450.3,524.8,452.4,522.8,453.6z"/>
		</g>
	</g>
	<g id="GUIDES_1_" class="st7">
	</g>
</g>
<g id="ELMS_Horizontal_Logo">
	<g id="TYPE_W_x2F__Variations">
		<g id="SUB_PROJECT_multiline" class="st7">
		</g>
		<g id="SUB_PROJECT_Single_line_copy" class="st7">
		</g>
	</g>
	<g id="GUIDES" class="st7">
		<g id="bounds" class="st8">
		</g>
		<g id="divisions" class="st8">
		</g>
		<g id="vertical_spacing" class="st8">
		</g>
		<g id="crop_guides" class="st8">
		</g>
	</g>
</g>
</svg>
