<svg xmlns="http://www.w3.org/2000/svg" width="948.57959" height="855.92894" viewBox="0 0 948.57959 855.92894">
  <title>powered-by-lrn-sticker-variant</title>
  <g>
    <g>
      <path d="M474.29006,805.33591a90.96292,90.96292,0,0,1-45.416-12.168L180.72268,649.89646a91.08187,91.08187,0,0,1-45.416-78.66211v-286.54a91.08425,91.08425,0,0,1,45.416-78.66211L428.874,62.76169a90.83358,90.83358,0,0,1,90.832,0L767.85646,206.03122a91.08584,91.08584,0,0,1,45.416,78.66309v286.54a91.08226,91.08226,0,0,1-45.416,78.66309L519.70607,793.16794A90.96831,90.96831,0,0,1,474.29006,805.33591Z" style="fill: #333"/>
      <path d="M474.28981,58.5925A82.77921,82.77921,0,0,1,515.70607,69.69L763.85646,212.95981a82.83227,82.83227,0,0,1,41.41626,71.73486V571.23422a82.83262,82.83262,0,0,1-41.41626,71.735L515.70607,786.239a82.83279,82.83279,0,0,1-82.83252,0L184.72316,642.96921a82.83262,82.83262,0,0,1-41.41626-71.735V284.69467a82.83227,82.83227,0,0,1,41.41626-71.73486L432.87355,69.69A82.77921,82.77921,0,0,1,474.28981,58.5925m0-15.99988a98.96241,98.96241,0,0,0-49.41626,13.24109L176.72316,199.10337a99.10726,99.10726,0,0,0-49.41626,85.59131V571.23422a99.10746,99.10746,0,0,0,49.41626,85.59143L424.87355,800.09543a98.83258,98.83258,0,0,0,98.83228,0L771.85646,656.82566a99.1072,99.1072,0,0,0,49.41626-85.59143V284.69467a99.107,99.107,0,0,0-49.41626-85.59131L523.70607,55.83371a98.96241,98.96241,0,0,0-49.41626-13.24109Z" style="fill: #efefef"/>
    </g>
    <g>
      <path d="M135.30666,499.23435v-214.54a91.08425,91.08425,0,0,1,45.416-78.66211L428.874,62.76267a90.82727,90.82727,0,0,1,90.832,0L767.85646,206.0322a91.08306,91.08306,0,0,1,45.416,78.66211v214.54Z" style="fill: #7c7c7c"/>
      <path d="M474.28981,58.59262A82.77907,82.77907,0,0,1,515.70607,69.69L763.85646,212.95981a82.83227,82.83227,0,0,1,41.41626,71.73486V491.23422H143.3069V284.69467a82.83227,82.83227,0,0,1,41.41626-71.73486L432.87355,69.69a82.77907,82.77907,0,0,1,41.41626-11.09741m0-16a98.965,98.965,0,0,0-49.41626,13.24109L176.72316,199.10349a99.10657,99.10657,0,0,0-49.41626,85.59119V507.23422H821.27272V284.69467a99.10657,99.10657,0,0,0-49.41626-85.59119L523.70607,55.83371a98.96367,98.96367,0,0,0-49.41626-13.24109Z" style="fill: #efefef"/>
    </g>
    <polygon points="488.228 582.917 443.228 642.917 473.228 642.917 458.228 687.917 503.228 627.917 473.228 627.917 488.228 582.917" style="fill: #28e8e8"/>
    <g>
      <path d="M340.2786,411.72585a7.09185,7.09185,0,0,1-6.14934-3.54556l-44.67963-77.37914a7.08844,7.08844,0,0,1,0-7.09113l44.67963-77.37568a7.09226,7.09226,0,1,1,12.28482,7.09113l-42.63678,73.83011,42.63678,73.83358a7.09047,7.09047,0,0,1-6.13549,10.63669Z" style="fill: #fff"/>
      <path d="M608.30791,411.72585a7.09047,7.09047,0,0,1-6.13549-10.63669l42.62985-73.83357-42.62985-73.83011a7.09226,7.09226,0,1,1,12.28482-7.09113L659.13,323.71a7.08844,7.08844,0,0,1,0,7.09113l-44.67271,77.37914A7.09185,7.09185,0,0,1,608.30791,411.72585Z" style="fill: #fff"/>
      <g>
        <path d="M394.70552,304.55567h6.8903a3.09465,3.09465,0,0,1-.38087,1.35729,3.39986,3.39986,0,0,0-.38087,1.53041v44.92893h25.60838v5.1937H394.70552Z" style="fill: #fff"/>
        <path d="M457.33456,304.55567h15.65726q9.359,0,13.48976,4.16881a14.93158,14.93158,0,0,1,4.12726,10.976,14.01246,14.01246,0,0,1-.76867,4.54968,16.2271,16.2271,0,0,1-2.1675,4.21728,14.839,14.839,0,0,1-3.40706,3.40014,12.51311,12.51311,0,0,1-4.46658,2.04285L492.05614,357.566h-6.641l-11.74468-23.39933H463.46312V357.566h-6.12856Zm6.12856,5.61612v18.71808h10.25582q5.67152,0,8.21989-2.51375a8.9456,8.9456,0,0,0,2.54145-6.67563,10.07349,10.07349,0,0,0-.67864-3.74639,9.0967,9.0967,0,0,0-1.90435-2.97772,8.79206,8.79206,0,0,0-3.26164-2.04285,13.972,13.972,0,0,0-4.9167-.76174Z" style="fill: #fff"/>
        <path d="M520.30292,357.566V304.55567h5.78924l22.29134,39.31281V304.46565h6.30168a2.55909,2.55909,0,0,1-.29777,1.108,2.61328,2.61328,0,0,0-.29777,1.19109V357.566h-4.68125l-23.39933-41.695v41.695Z" style="fill: #fff"/>
      </g>
    </g>
  </g>
</svg>
