<svg xmlns="http://www.w3.org/2000/svg" width="948.57959" height="855.92894" viewBox="0 0 948.57959 855.92894">
  <title>powered-by-lrn-sticker</title>
  <g>
    <g>
      <path d="M474.28985,805.33591a90.96292,90.96292,0,0,1-45.416-12.168L180.72344,649.89646a91.07949,91.07949,0,0,1-45.416-78.66211v-286.54a91.08584,91.08584,0,0,1,45.416-78.66309L428.87383,62.76169a90.83042,90.83042,0,0,1,90.832.001L767.85625,206.03122a91.08584,91.08584,0,0,1,45.416,78.66309v286.54a91.08226,91.08226,0,0,1-45.416,78.66309L519.70586,793.16794A90.96293,90.96293,0,0,1,474.28985,805.33591Z" style="fill: #333"/>
      <path d="M474.28985,58.5925A82.77965,82.77965,0,0,1,515.70586,69.69L763.85625,212.95981a82.8325,82.8325,0,0,1,41.4165,71.73486V571.23422a82.83284,82.83284,0,0,1-41.4165,71.735L515.70586,786.239a82.83188,82.83188,0,0,1-82.832,0L184.723,642.96921a82.83239,82.83239,0,0,1-41.416-71.735V284.69467a82.832,82.832,0,0,1,41.416-71.73486L432.87383,69.69a82.77965,82.77965,0,0,1,41.416-11.09753m0-15.99988a98.96219,98.96219,0,0,0-49.416,13.24109L176.723,199.10337a99.10684,99.10684,0,0,0-49.416,85.59131V571.23422a99.10719,99.10719,0,0,0,49.416,85.59143L424.87383,800.09543a98.83213,98.83213,0,0,0,98.832,0L771.85625,656.82566a99.10854,99.10854,0,0,0,49.4165-85.59143V284.69467a99.10775,99.10775,0,0,0-49.4165-85.59131L523.70586,55.83371a98.96219,98.96219,0,0,0-49.416-13.24109Z" style="fill: #efefef"/>
    </g>
    <g>
      <path d="M135.30743,499.23435v-214.54a91.08306,91.08306,0,0,1,45.416-78.66211L428.87383,62.76267a90.82727,90.82727,0,0,1,90.832,0L767.85625,206.0322a91.08306,91.08306,0,0,1,45.416,78.66211v214.54Z" style="fill: #7c7c7c"/>
      <path d="M474.28985,58.59262A82.77819,82.77819,0,0,1,515.70586,69.69L763.85625,212.95981a82.8325,82.8325,0,0,1,41.4165,71.73486V491.23422H143.30694V284.69467a82.832,82.832,0,0,1,41.416-71.73486L432.87383,69.69a82.77818,82.77818,0,0,1,41.416-11.09741m0-16a98.96344,98.96344,0,0,0-49.416,13.24109L176.723,199.10349a99.10635,99.10635,0,0,0-49.416,85.59119V507.23422H821.27276V284.69467a99.1071,99.1071,0,0,0-49.4165-85.59119L523.70586,55.83371a98.96344,98.96344,0,0,0-49.416-13.24109Z" style="fill: #efefef"/>
    </g>
    <g>
      <path d="M327.77813,555.53415h12.68555a16.24538,16.24538,0,0,1,5.71289.89355,10.838,10.838,0,0,1,3.91113,2.43164,9.42866,9.42866,0,0,1,2.25586,3.57422,13.40868,13.40868,0,0,1,.01465,8.61328,9.181,9.181,0,0,1-2.19727,3.501,10.61424,10.61424,0,0,1-3.82324,2.373,15.82816,15.82816,0,0,1-5.58105.87891h-6.123V592.917h-6.85547Zm6.85547,5.94727v10.60547h5.625a7.98859,7.98859,0,0,0,2.666-.39551,5.038,5.038,0,0,0,1.83105-1.084,4.18415,4.18415,0,0,0,1.05469-1.626,6.02336,6.02336,0,0,0,.33691-2.05078,6.4711,6.4711,0,0,0-.35156-2.168,4.64472,4.64472,0,0,0-1.06934-1.72852,4.89494,4.89494,0,0,0-1.81641-1.14258,7.40921,7.40921,0,0,0-2.59277-.41016Z" style="fill: #efefef"/>
      <path d="M384.84844,594.00095a11.779,11.779,0,0,1-5.918-1.47949,13.15341,13.15341,0,0,1-4.40918-4.13086,20.18072,20.18072,0,0,1-2.75391-6.29883,31.43534,31.43534,0,0,1-.95215-7.9541,30.16767,30.16767,0,0,1,.98145-7.93945,19.36537,19.36537,0,0,1,2.8125-6.18164,13.25432,13.25432,0,0,1,4.43848-4.01367,11.94441,11.94441,0,0,1,5.85938-1.43555,12.06344,12.06344,0,0,1,9.74121,4.834,18.67287,18.67287,0,0,1,3.00293,6.123,30.16625,30.16625,0,0,1,1.11328,8.67188,34.18739,34.18739,0,0,1-.55664,6.47461,23.88207,23.88207,0,0,1-1.52344,5.06836,15.51041,15.51041,0,0,1-2.28516,3.76465,12.78579,12.78579,0,0,1-2.87109,2.56348,11.82345,11.82345,0,0,1-3.252,1.46484A12.83489,12.83489,0,0,1,384.84844,594.00095ZM377.7586,573.7861a31.1564,31.1564,0,0,0,.52734,6.06445,16.18281,16.18281,0,0,0,1.47949,4.42383,7.48383,7.48383,0,0,0,2.25586,2.69531,4.93643,4.93643,0,0,0,2.88574.9082,5.37663,5.37663,0,0,0,2.59277-.67383,5.81786,5.81786,0,0,0,2.18262-2.28516,14.7236,14.7236,0,0,0,1.50879-4.2627,31.88751,31.88751,0,0,0,.57129-6.57715,27.73088,27.73088,0,0,0-.61523-6.32812,14.70054,14.70054,0,0,0-1.582-4.1748,6.38161,6.38161,0,0,0-2.18262-2.2998,4.79708,4.79708,0,0,0-2.417-.70312,6.10329,6.10329,0,0,0-2.73926.64453,5.95816,5.95816,0,0,0-2.2998,2.168,12.647,12.647,0,0,0-1.582,4.05762A28.779,28.779,0,0,0,377.7586,573.7861Z" style="fill: #efefef"/>
      <path d="M415.14141,555.53415h6.5625l2.13867,24.668,4.39453-21.5918h4.30664l4.39453,21.416,1.55273-24.49219h6.24023L440.27813,592.917h-5.27344l-4.92187-22.73437L425.10235,592.917h-5.39062Z" style="fill: #efefef"/>
      <path d="M463.159,555.53415h24.3457v5.77148h-17.8125v9.22852h14.76563v5.88867H469.69219v10.72266H487.3875V592.917H463.159Z" style="fill: #efefef"/>
      <path d="M507.60235,555.53415h11.83594a19.39153,19.39153,0,0,1,5.96191.80566,10.78712,10.78712,0,0,1,4.05762,2.27051,8.71385,8.71385,0,0,1,2.31445,3.51563,13.5154,13.5154,0,0,1,.73242,4.57031,9.76761,9.76761,0,0,1-.5127,3.07617,11.73367,11.73367,0,0,1-1.43555,2.915,10.515,10.515,0,0,1-2.25586,2.40234,9.60906,9.60906,0,0,1-2.94434,1.56738L534.116,592.917h-7.55859l-7.73437-15.46875h-4.36523V592.917h-6.85547Zm6.85547,5.94727v10.25391h5.39063a8.22114,8.22114,0,0,0,2.59277-.36621,4.81823,4.81823,0,0,0,1.80176-1.02539,4.01452,4.01452,0,0,0,1.04-1.59668,6.02336,6.02336,0,0,0,.33691-2.05078,5.13268,5.13268,0,0,0-1.377-3.92578,6.28494,6.28494,0,0,0-4.39453-1.28906Z" style="fill: #efefef"/>
      <path d="M553.159,555.53415h24.3457v5.77148h-17.8125v9.22852h14.76563v5.88867H559.69219v10.72266H577.3875V592.917H553.159Z" style="fill: #efefef"/>
      <path d="M597.42657,555.53415h9.668a24.42031,24.42031,0,0,1,4.39453.35156,14.71724,14.71724,0,0,1,3.36914,1.01074,10.70372,10.70372,0,0,1,2.59277,1.626,13.64966,13.64966,0,0,1,2.06543,2.22656,18.39811,18.39811,0,0,1,2.87109,6.02051,31.30062,31.30062,0,0,1,.01465,15.38086,14.80306,14.80306,0,0,1-3.01758,5.80078,13.46036,13.46036,0,0,1-5.28809,3.67676,20.81531,20.81531,0,0,1-7.73437,1.28906h-8.93555Zm6.5332,5.5957v26.51367h2.28516q5.30273,0,7.83691-3.35449t2.53418-9.624a26.92364,26.92364,0,0,0-.542-5.66895,12.13024,12.13024,0,0,0-1.72852-4.2627,7.84327,7.84327,0,0,0-3.03223-2.68066,9.86844,9.86844,0,0,0-4.45312-.92285Z" style="fill: #efefef"/>
    </g>
    <polygon points="488.228 622.917 443.228 682.917 473.228 682.917 458.228 727.917 503.228 667.917 473.228 667.917 488.228 622.917" style="fill: #28e8e8"/>
    <g>
      <path d="M340.2786,411.72585a7.09185,7.09185,0,0,1-6.14934-3.54556l-44.67963-77.37914a7.08844,7.08844,0,0,1,0-7.09113l44.67963-77.37568a7.09226,7.09226,0,1,1,12.28482,7.09113l-42.63678,73.83011,42.63678,73.83358a7.09047,7.09047,0,0,1-6.13549,10.63669Z" style="fill: #fff"/>
      <path d="M608.30791,411.72585a7.09047,7.09047,0,0,1-6.13549-10.63669l42.62985-73.83357-42.62985-73.83011a7.09226,7.09226,0,1,1,12.28482-7.09113L659.13,323.71a7.08844,7.08844,0,0,1,0,7.09113l-44.67271,77.37914A7.09185,7.09185,0,0,1,608.30791,411.72585Z" style="fill: #fff"/>
      <g>
        <path d="M394.70552,304.55567h6.8903a3.09465,3.09465,0,0,1-.38087,1.35729,3.39986,3.39986,0,0,0-.38087,1.53041v44.92893h25.60838v5.1937H394.70552Z" style="fill: #fff"/>
        <path d="M457.33456,304.55567h15.65726q9.359,0,13.48976,4.16881a14.93158,14.93158,0,0,1,4.12726,10.976,14.01246,14.01246,0,0,1-.76867,4.54968,16.2271,16.2271,0,0,1-2.1675,4.21728,14.839,14.839,0,0,1-3.40706,3.40014,12.51311,12.51311,0,0,1-4.46658,2.04285L492.05614,357.566h-6.641l-11.74468-23.39933H463.46312V357.566h-6.12856Zm6.12856,5.61612v18.71808h10.25582q5.67152,0,8.21989-2.51375a8.9456,8.9456,0,0,0,2.54145-6.67563,10.07349,10.07349,0,0,0-.67864-3.74639,9.0967,9.0967,0,0,0-1.90435-2.97772,8.79206,8.79206,0,0,0-3.26164-2.04285,13.972,13.972,0,0,0-4.9167-.76174Z" style="fill: #fff"/>
        <path d="M520.30292,357.566V304.55567h5.78924l22.29134,39.31281V304.46565h6.30168a2.55909,2.55909,0,0,1-.29777,1.108,2.61328,2.61328,0,0,0-.29777,1.19109V357.566h-4.68125l-23.39933-41.695v41.695Z" style="fill: #fff"/>
      </g>
    </g>
  </g>
</svg>
