<svg xmlns="http://www.w3.org/2000/svg" width="948.57959" height="855.92894" viewBox="0 0 948.57959 855.92894">
  <title>powered-by-elmsln-sticker-1</title>
  <g>
    <g>
      <path d="M474.29006,805.33632a90.94474,90.94474,0,0,1-45.416-12.16992L180.72268,649.89785a91.08861,91.08861,0,0,1-45.416-78.66406V284.69472a91.08584,91.08584,0,0,1,45.416-78.66309L428.874,62.76162a90.83358,90.83358,0,0,1,90.832,0l248.15039,143.269a91.08623,91.08623,0,0,1,45.416,78.66406V571.23378a91.08623,91.08623,0,0,1-45.416,78.66406L519.70607,793.16738A90.95652,90.95652,0,0,1,474.29006,805.33632Z" style="fill: #333"/>
      <path d="M474.28981,58.59258a82.77914,82.77914,0,0,1,41.41626,11.09747L763.85646,212.9598a82.83236,82.83236,0,0,1,41.41626,71.73494V571.2342a82.83236,82.83236,0,0,1-41.41626,71.73494L515.70607,786.23888a82.83239,82.83239,0,0,1-82.83252,0L184.72316,642.96914A82.83236,82.83236,0,0,1,143.3069,571.2342V284.69474a82.83236,82.83236,0,0,1,41.41626-71.73494L432.87355,69.69005a82.77914,82.77914,0,0,1,41.41626-11.09747m0-16a98.963,98.963,0,0,0-49.41626,13.24106L176.72316,199.10341a99.10714,99.10714,0,0,0-49.41626,85.59132V571.2342a99.10717,99.10717,0,0,0,49.41626,85.59134L424.87355,800.09526a98.83245,98.83245,0,0,0,98.83252,0L771.85646,656.82554a99.10691,99.10691,0,0,0,49.41626-85.59134V284.69474a99.10688,99.10688,0,0,0-49.41626-85.59132L523.70607,55.83367a98.963,98.963,0,0,0-49.41626-13.24106Z" style="fill: #efefef"/>
    </g>
    <g>
      <path d="M135.30666,499.23378V284.69472a91.08584,91.08584,0,0,1,45.416-78.66309L428.874,62.76162a90.83358,90.83358,0,0,1,90.832,0l248.15039,143.27a91.08345,91.08345,0,0,1,45.416,78.66309V499.23378Z" style="fill: #7c7c7c"/>
      <path d="M474.28981,58.59261A82.78,82.78,0,0,1,515.70607,69.69l248.15039,143.2699a82.83227,82.83227,0,0,1,41.41626,71.73486v206.5395H143.3069V284.69472a82.83227,82.83227,0,0,1,41.41626-71.73486L432.87355,69.69a82.78,82.78,0,0,1,41.41626-11.09735m0-16a98.96461,98.96461,0,0,0-49.41626,13.241L176.72316,199.10347a99.10682,99.10682,0,0,0-49.41626,85.59125v222.5395H821.27272V284.69472a99.10682,99.10682,0,0,0-49.41626-85.59125L523.70607,55.83361a98.96326,98.96326,0,0,0-49.41626-13.241Z" style="fill: #efefef"/>
    </g>
    <polygon points="488.228 582.917 443.228 642.917 473.228 642.917 458.228 687.917 503.228 627.917 473.228 627.917 488.228 582.917" style="fill: #28e8e8"/>
    <path d="M547.35306,268.27792l13.52058,7.803a12.19642,12.19642,0,0,0,12.19329-.00028L593.1314,264.4998a12.19642,12.19642,0,0,0,6.09954-10.56318V230.76717a12.19642,12.19642,0,0,0-6.09794-10.56226L573.06853,208.62a12.19642,12.19642,0,0,0-12.19649-.00027L540.80493,220.205a12.19642,12.19642,0,0,0-6.0984,10.56252v15.36387a12.19642,12.19642,0,0,1-6.09844,10.56255L499.33741,273.5925a12.19642,12.19642,0,0,1-12.19546.00029l-.102-.05886a12.19642,12.19642,0,0,1-6.09894-10.56283V227.64376a12.19642,12.19642,0,0,1,6.1-10.56347l13.41086-7.73965a12.19642,12.19642,0,0,0,6.1-10.56347V175.60845a12.19642,12.19642,0,0,0-6.0984-10.56252l-20.06711-11.58526a12.19642,12.19642,0,0,0-12.19649.00027l-20.06447,11.5849a12.19642,12.19642,0,0,0-6.09794,10.56226v23.16951a12.19642,12.19642,0,0,0,6.09947,10.56314l13.40878,7.73943a12.19642,12.19642,0,0,1,6.09947,10.56314v35.44491a12.19642,12.19642,0,0,1-6.0987,10.5627h0a12.19642,12.19642,0,0,1-12.196-.00032L419.97122,256.694a12.19642,12.19642,0,0,1-6.09816-10.56238V230.70255a12.19642,12.19642,0,0,0-6.0984-10.56252l-20.06711-11.58526a12.19642,12.19642,0,0,0-12.19649.00027l-20.06447,11.5849a12.19642,12.19642,0,0,0-6.09794,10.56226v23.16946a12.19642,12.19642,0,0,0,6.09954,10.56318l20.06442,11.58083a12.19642,12.19642,0,0,0,12.19339.00022l13.46371-7.77038a12.19642,12.19642,0,0,1,12.19465.00095l29.31772,16.92636a12.19642,12.19642,0,0,1,6.09828,10.56245v.00515a12.19642,12.19642,0,0,1-6.09848,10.56257l-29.26519,16.89526a12.19642,12.19642,0,0,1-12.19568.00011l-13.41283-7.7431a12.19642,12.19642,0,0,0-12.19622.00043l-20.06466,11.585a12.19642,12.19642,0,0,0-6.09794,10.56226v23.16946a12.19642,12.19642,0,0,0,6.09954,10.56318l20.06447,11.58086a12.19642,12.19642,0,0,0,12.1933.00027l20.06711-11.58122a12.19642,12.19642,0,0,0,6.1-10.56344V345.28578a12.19642,12.19642,0,0,1,6.09818-10.5624l29.15869-16.83487a12.19642,12.19642,0,0,1,12.19584-.00037l.11.0635a12.19642,12.19642,0,0,1,6.09882,10.56276v33.67069a12.19642,12.19642,0,0,1-6.098,10.56227l-13.41179,7.74372a12.19642,12.19642,0,0,0-6.098,10.56227v23.16944a12.19642,12.19642,0,0,0,6.09954,10.56318l20.06447,11.58086a12.19642,12.19642,0,0,0,12.1933.00027L500.452,424.78588a12.19642,12.19642,0,0,0,6.1-10.56344V391.05379a12.19642,12.19642,0,0,0-6.09854-10.5626l-13.41388-7.74395a12.19642,12.19642,0,0,1-6.09854-10.5626V328.63152a12.19642,12.19642,0,0,1,6.09905-10.5629l.212-.12235a12.19642,12.19642,0,0,1,12.19532.00033l29.06,16.77682a12.19642,12.19642,0,0,1,6.09847,10.56256v15.48606a12.19642,12.19642,0,0,0,6.1,10.56344l20.06711,11.58122a12.19642,12.19642,0,0,0,12.1933-.00027l20.06447-11.58086a12.19642,12.19642,0,0,0,6.09954-10.56318V337.603a12.19642,12.19642,0,0,0-6.09794-10.56226l-20.06437-11.58485a12.19642,12.19642,0,0,0-12.19665-.00018l-13.41271,7.74376a12.19642,12.19642,0,0,1-12.19647-.00007l-29.065-16.781A12.19642,12.19642,0,0,1,499.999,295.856v-.23613a12.19642,12.19642,0,0,1,6.09821-10.56241L535.15844,268.279A12.19642,12.19642,0,0,1,547.35306,268.27792ZM400.56732,249.51307a6.44471,6.44471,0,0,1-3.22361,5.582l-3.37972,1.95027-9.1331,5.27106a6.44471,6.44471,0,0,1-6.44322-.00017l-12.51032-7.221a6.44471,6.44471,0,0,1-3.223-5.58163V235.0604a6.44471,6.44471,0,0,1,3.22152-5.5808l12.5104-7.22537a6.44471,6.44471,0,0,1,6.446-.00024l12.5131,7.22569a6.44471,6.44471,0,0,1,3.22194,5.581v14.45235ZM585.8245,341.96116v14.45317a6.44471,6.44471,0,0,1-3.223,5.58163l-12.5104,7.22109a6.44471,6.44471,0,0,1-6.4431.00024l-12.5131-7.22141a6.44471,6.44471,0,0,1-3.22337-5.58187V341.96132a6.44471,6.44471,0,0,1,3.22174-5.58093l3.42992-1.98077,9.08342-5.245a6.44471,6.44471,0,0,1,6.44586.0003l12.51048,7.22542A6.44471,6.44471,0,0,1,585.8245,341.96116ZM551.23421,229.54465l12.5131-7.22569a6.44471,6.44471,0,0,1,6.446.00024l12.5104,7.22537a6.44471,6.44471,0,0,1,3.22152,5.5808v14.45317a6.44471,6.44471,0,0,1-3.223,5.58163l-12.51034,7.221a6.44471,6.44471,0,0,1-6.44319.00018l-9.18955-5.30357-3.32334-1.91778a6.44471,6.44471,0,0,1-3.22356-5.582V235.12569A6.44471,6.44471,0,0,1,551.23421,229.54465Zm-92.67935-55.15915,12.5104-7.22537a6.44471,6.44471,0,0,1,6.446-.00024l12.5131,7.22569a6.44471,6.44471,0,0,1,3.22194,5.581v14.45246a6.44471,6.44471,0,0,1-3.22346,5.58192L480.941,205.242l-3.43136,1.98041a6.44471,6.44471,0,0,1-6.443,0L467.6353,205.242l-9.07914-5.24082a6.44471,6.44471,0,0,1-3.22283-5.58156V179.9663A6.44471,6.44471,0,0,1,458.55485,174.38549ZM400.668,345.92683V356.414a6.44471,6.44471,0,0,1-3.22337,5.58187l-12.5131,7.22141a6.44471,6.44471,0,0,1-6.4431-.00024L365.978,361.996a6.44471,6.44471,0,0,1-3.223-5.58163V341.96116a6.44471,6.44471,0,0,1,3.22152-5.5808l12.51048-7.22542a6.44471,6.44471,0,0,1,6.44586-.0003l9.08342,5.245,3.42992,1.98077a6.44471,6.44471,0,0,1,3.22174,5.58093Zm89.35486,69.51943-12.5131,7.22141a6.44471,6.44471,0,0,1-6.4431-.00024l-12.5104-7.22109a6.44471,6.44471,0,0,1-3.223-5.58163v-14.453a6.44471,6.44471,0,0,1,3.22172-5.58092l9.08025-5.24386,3.43-1.98129a6.44471,6.44471,0,0,1,6.44609-.00059l3.42966,1.98026,9.08341,5.2455a6.44471,6.44471,0,0,1,3.22181,5.581v14.45264A6.44471,6.44471,0,0,1,490.02289,415.44626Z" style="fill: #fff"/>
  </g>
</svg>
