<svg xmlns="http://www.w3.org/2000/svg" xmlns:xlink="http://www.w3.org/1999/xlink" width="948.57959" height="855.92894" viewBox="0 0 948.57959 855.92894">
  <defs>
    <clipPath id="a">
      <rect x="231.52576" y="60.57678" width="505.59468" height="310.89146" transform="translate(968.64619 432.04501) rotate(180)" style="fill: none"/>
    </clipPath>
  </defs>
  <title>powered-by-elmsln-sticker-3</title>
  <g>
    <g>
      <path d="M474.28985,805.33666a90.94474,90.94474,0,0,1-45.416-12.16992L180.72344,649.89818a91.08623,91.08623,0,0,1-45.416-78.66406V284.69506a91.08623,91.08623,0,0,1,45.416-78.66406L428.87383,62.76146a90.83042,90.83042,0,0,1,90.832.001L767.85625,206.031a91.08623,91.08623,0,0,1,45.416,78.66406V571.23412a91.08623,91.08623,0,0,1-45.416,78.66406L519.70586,793.16771A90.95383,90.95383,0,0,1,474.28985,805.33666Z" style="fill: #333"/>
      <path d="M474.28985,58.59252a82.78077,82.78077,0,0,1,41.416,11.09741L763.85625,212.95971a82.83289,82.83289,0,0,1,41.4165,71.73511V571.23412a82.83289,82.83289,0,0,1-41.4165,71.73511L515.70586,786.239a82.83345,82.83345,0,0,1-82.832,0L184.723,642.96923a82.83244,82.83244,0,0,1-41.416-71.73511V284.69481a82.83244,82.83244,0,0,1,41.416-71.73511L432.87383,69.68993a82.78077,82.78077,0,0,1,41.416-11.09741m0-16a98.96584,98.96584,0,0,0-49.416,13.241L176.723,199.10326a99.10724,99.10724,0,0,0-49.416,85.59155V571.23412a99.10754,99.10754,0,0,0,49.416,85.59155L424.87383,800.09545a98.83213,98.83213,0,0,0,98.832,0L771.85625,656.82567a99.10859,99.10859,0,0,0,49.4165-85.59155V284.69481a99.10859,99.10859,0,0,0-49.4165-85.59155L523.70586,55.83349a98.96584,98.96584,0,0,0-49.416-13.241Z" style="fill: #efefef"/>
    </g>
    <polygon points="102.351 359.546 143.307 314.546 143.307 359.546 805.273 359.546 805.273 314.546 846.228 359.546 846.228 495.137 102.351 496.461 102.351 359.546" style="fill: #efefef"/>
    <g>
      <path d="M327.77813,555.53392h12.68555a16.24538,16.24538,0,0,1,5.71289.89355,10.838,10.838,0,0,1,3.91113,2.43164,9.42866,9.42866,0,0,1,2.25586,3.57422,13.40868,13.40868,0,0,1,.01465,8.61328,9.181,9.181,0,0,1-2.19727,3.501,10.61424,10.61424,0,0,1-3.82324,2.373,15.82816,15.82816,0,0,1-5.58105.87891h-6.123v15.11719h-6.85547Zm6.85547,5.94727v10.60547h5.625a7.98859,7.98859,0,0,0,2.666-.39551,5.038,5.038,0,0,0,1.83105-1.084,4.18415,4.18415,0,0,0,1.05469-1.626,6.02336,6.02336,0,0,0,.33691-2.05078,6.4711,6.4711,0,0,0-.35156-2.168,4.64472,4.64472,0,0,0-1.06934-1.72852,4.89494,4.89494,0,0,0-1.81641-1.14258,7.40921,7.40921,0,0,0-2.59277-.41016Z" style="fill: #efefef"/>
      <path d="M384.84844,594.00072a11.779,11.779,0,0,1-5.918-1.47949,13.15341,13.15341,0,0,1-4.40918-4.13086,20.18072,20.18072,0,0,1-2.75391-6.29883,31.43534,31.43534,0,0,1-.95215-7.9541,30.16767,30.16767,0,0,1,.98145-7.93945,19.36537,19.36537,0,0,1,2.8125-6.18164,13.25432,13.25432,0,0,1,4.43848-4.01367,11.94441,11.94441,0,0,1,5.85938-1.43555,12.06344,12.06344,0,0,1,9.74121,4.834,18.67287,18.67287,0,0,1,3.00293,6.123,30.16625,30.16625,0,0,1,1.11328,8.67188,34.18739,34.18739,0,0,1-.55664,6.47461,23.88207,23.88207,0,0,1-1.52344,5.06836,15.51041,15.51041,0,0,1-2.28516,3.76465,12.78579,12.78579,0,0,1-2.87109,2.56348,11.82345,11.82345,0,0,1-3.252,1.46484A12.83489,12.83489,0,0,1,384.84844,594.00072Zm-7.08984-20.21484a31.1564,31.1564,0,0,0,.52734,6.06445,16.18281,16.18281,0,0,0,1.47949,4.42383,7.48383,7.48383,0,0,0,2.25586,2.69531,4.93643,4.93643,0,0,0,2.88574.9082,5.37663,5.37663,0,0,0,2.59277-.67383,5.81786,5.81786,0,0,0,2.18262-2.28516,14.7236,14.7236,0,0,0,1.50879-4.2627,31.88751,31.88751,0,0,0,.57129-6.57715,27.73088,27.73088,0,0,0-.61523-6.32812,14.70053,14.70053,0,0,0-1.582-4.1748,6.38161,6.38161,0,0,0-2.18262-2.2998,4.79708,4.79708,0,0,0-2.417-.70312,6.10329,6.10329,0,0,0-2.73926.64453,5.95816,5.95816,0,0,0-2.2998,2.168,12.647,12.647,0,0,0-1.582,4.05762A28.779,28.779,0,0,0,377.7586,573.78588Z" style="fill: #efefef"/>
      <path d="M415.14141,555.53392h6.5625l2.13867,24.668,4.39453-21.5918h4.30664l4.39453,21.416,1.55273-24.49219h6.24023l-4.45312,37.38281h-5.27344l-4.92187-22.73437-4.98047,22.73438h-5.39062Z" style="fill: #efefef"/>
      <path d="M463.159,555.53392h24.3457v5.77148h-17.8125v9.22852h14.76563v5.88867H469.69219v10.72266H487.3875v5.77148H463.159Z" style="fill: #efefef"/>
      <path d="M507.60235,555.53392h11.83594a19.39153,19.39153,0,0,1,5.96191.80566,10.78712,10.78712,0,0,1,4.05762,2.27051,8.71385,8.71385,0,0,1,2.31445,3.51563,13.5154,13.5154,0,0,1,.73242,4.57031,9.76761,9.76761,0,0,1-.5127,3.07617,11.73367,11.73367,0,0,1-1.43555,2.915,10.515,10.515,0,0,1-2.25586,2.40234,9.60906,9.60906,0,0,1-2.94434,1.56738l8.75977,16.25977h-7.55859L518.82305,577.448h-4.36523v15.46875h-6.85547Zm6.85547,5.94727V571.7351h5.39063a8.22114,8.22114,0,0,0,2.59277-.36621,4.81823,4.81823,0,0,0,1.80176-1.02539,4.01452,4.01452,0,0,0,1.04-1.59668,6.02336,6.02336,0,0,0,.33691-2.05078,5.13268,5.13268,0,0,0-1.377-3.92578,6.28494,6.28494,0,0,0-4.39453-1.28906Z" style="fill: #efefef"/>
      <path d="M553.159,555.53392h24.3457v5.77148h-17.8125v9.22852h14.76563v5.88867H559.69219v10.72266H577.3875v5.77148H553.159Z" style="fill: #efefef"/>
      <path d="M597.42657,555.53392h9.668a24.42031,24.42031,0,0,1,4.39453.35156,14.71724,14.71724,0,0,1,3.36914,1.01074,10.70372,10.70372,0,0,1,2.59277,1.626,13.64967,13.64967,0,0,1,2.06543,2.22656,18.39811,18.39811,0,0,1,2.87109,6.02051,31.30062,31.30062,0,0,1,.01465,15.38086,14.80306,14.80306,0,0,1-3.01758,5.80078,13.46036,13.46036,0,0,1-5.28809,3.67676,20.81531,20.81531,0,0,1-7.73437,1.28906h-8.93555Zm6.5332,5.5957V587.6433h2.28516q5.30273,0,7.83691-3.35449t2.53418-9.624a26.92364,26.92364,0,0,0-.542-5.66895,12.13024,12.13024,0,0,0-1.72852-4.2627,7.84327,7.84327,0,0,0-3.03223-2.68066,9.86844,9.86844,0,0,0-4.45312-.92285Z" style="fill: #efefef"/>
    </g>
    <g>
      <g>
        <g>
          <path d="M230.51153,469.42162a2.27383,2.27383,0,0,1-2.39062-2.50684V388.81322a2.41036,2.41036,0,0,1,2.22559-2.49316l.082-.01367h43.30566a2.44944,2.44944,0,0,1,0,4.89746h-40.7168v34.15332h35.73438a2.44944,2.44944,0,0,1,0,4.89746H233.01739v34.26953h40.7168a2.44944,2.44944,0,0,1,0,4.89746Z" style="fill: #333"/>
          <path d="M273.73418,387.30614q1.39087,0,1.39063,1.44824,0,1.45093-1.39062,1.449h-41.7168v36.15381h36.73438q1.39014,0,1.39014,1.44922,0,1.44983-1.39014,1.448H232.01739v36.27h41.7168q1.39087,0,1.39063,1.449,0,1.44983-1.39062,1.44824H230.51153q-1.39087,0-1.39062-1.50659V388.81273a1.43061,1.43061,0,0,1,1.39063-1.50659h43.22266m0-2H230.345l-.16455.02759a3.41345,3.41345,0,0,0-3.05957,3.479V466.915a3.26629,3.26629,0,0,0,3.39063,3.50659h43.22266a3.4491,3.4491,0,0,0,0-6.89722h-39.7168v-32.27h34.73438a3.44911,3.44911,0,0,0,0-6.89722H234.01739V392.20336h39.7168a3.4491,3.4491,0,0,0,0-6.89722Z" style="fill: #333"/>
        </g>
        <g>
          <path d="M322.51739,469.42162a2.32548,2.32548,0,0,1-2.50586-2.50684V388.81322a2.44893,2.44893,0,1,1,4.89648,0v75.71094h40.833a2.4494,2.4494,0,1,1,0,4.89746Z" style="fill: #333"/>
          <path d="M322.46026,387.30614q1.44727,0,1.44824,1.50659V465.5244h41.832q1.50586,0,1.50684,1.449,0,1.44983-1.50684,1.44824H322.51787A1.33084,1.33084,0,0,1,321.012,466.915V388.81273q0-1.50549,1.44824-1.50659m0-2a3.2925,3.2925,0,0,0-3.44824,3.50659V466.915a3.31934,3.31934,0,0,0,3.50586,3.50659h43.22266a3.44909,3.44909,0,1,0,0-6.89722h-39.832V388.81273a3.2925,3.2925,0,0,0-3.44824-3.50659Z" style="fill: #333"/>
        </g>
        <g>
          <path d="M475.70879,469.42162a2.252,2.252,0,0,1-1.73828-.80762,2.53394,2.53394,0,0,1-.65234-1.69922V396.322L445.534,435.00365l-.05859.05762a2.74556,2.74556,0,0,1-1.98047.87109h-.23242a2.29869,2.29869,0,0,1-2.13184-1.06445l-27.80762-38.66406v70.71094a2.44893,2.44893,0,1,1-4.89648,0V388.92846a2.445,2.445,0,0,1,.75586-1.75,2.29184,2.29184,0,0,1,1.63477-.75586,3.62537,3.62537,0,0,1,2.085.76367l.13574.0957,30.34082,42.11523,30.291-42.04687.05762-.05664a2.77541,2.77541,0,0,1,1.98145-.87109,2.32548,2.32548,0,0,1,2.50684,2.50586v77.98633A2.32622,2.32622,0,0,1,475.70879,469.42162Z" style="fill: #333"/>
          <path d="M475.70879,387.42211a1.33238,1.33238,0,0,1,1.50684,1.50586V466.915a1.33192,1.33192,0,0,1-1.50684,1.50659,1.25816,1.25816,0,0,1-.98486-.46338,1.53418,1.53418,0,0,1-.40576-1.04321v-73.699l-29.54883,41.13721a1.77161,1.77161,0,0,1-1.2749.57886h-.23193a1.35884,1.35884,0,0,1-1.27441-.57886l-29.66553-41.25342V466.915q0,1.50769-1.44824,1.50659-1.44946,0-1.44824-1.50659V388.928a1.43659,1.43659,0,0,1,.46387-1.04224,1.33434,1.33434,0,0,1,.92676-.46362,2.651,2.651,0,0,1,1.50586.57886l31.05615,43.10767L474.43438,388.001a1.77314,1.77314,0,0,1,1.27441-.57886m0-2a3.75746,3.75746,0,0,0-2.68848,1.16455l-.11426.11426-.09424.1311-29.43311,40.855-29.43359-40.85522-.19287-.26782-.269-.19165a4.59327,4.59327,0,0,0-2.6665-.9502,3.26813,3.26813,0,0,0-2.34277,1.051,3.41711,3.41711,0,0,0-1.04785,2.45483V466.915a3.44873,3.44873,0,1,0,6.89648,0V399.30687l26.00586,36.16431a3.29975,3.29975,0,0,0,2.93408,1.46094h.23193a3.74556,3.74556,0,0,0,2.687-1.16235l.11621-.11621.09619-.13355,25.92432-36.09131V466.915a3.53391,3.53391,0,0,0,.90527,2.36548,3.26423,3.26423,0,0,0,2.48535,1.14111,3.31986,3.31986,0,0,0,3.50684-3.50659V388.928a3.31954,3.31954,0,0,0-3.50684-3.50586Z" style="fill: #333"/>
        </g>
        <g>
          <path d="M556.535,470.0017a47.64615,47.64615,0,0,1-25.14941-7.56543,34.08617,34.08617,0,0,1-5.57031-3.91016c-1.10645-1.10449-1.49707-2.13867-1.16211-3.07324a2.54586,2.54586,0,0,1,1.60938-1.65332,2.05791,2.05791,0,0,1,.65039-.10645,2.74515,2.74515,0,0,1,1.85254.84277c.50488.4707,1.70313,1.40137,3.5625,2.76758a50.94046,50.94046,0,0,0,9.86719,4.91992,36.8673,36.8673,0,0,0,13.93359,2.88086c7.55371,0,14.00488-1.88574,19.17285-5.60547,5.13965-3.69727,7.6377-8.09375,7.6377-13.44141,0-4.13965-1.13965-7.15332-3.4834-9.21484a33.88591,33.88591,0,0,0-3.8291-2.98633,22.47776,22.47776,0,0,0-5.2041-2.25879c-2.749-.916-6.249-1.88281-10.41211-2.877-4.1875-.99707-7.10352-1.72168-8.667-2.15234-1.56055-.42773-3.64453-1.07617-6.19141-1.92773a25.0074,25.0074,0,0,1-6.10156-2.78906,43.68581,43.68581,0,0,1-4.44922-3.55762c-2.99414-2.8252-4.50293-6.98828-4.50293-12.38867,0-5.43945,2.60645-10.209,7.74707-14.17676a29.361,29.361,0,0,1,18.39941-5.88574,36.31355,36.31355,0,0,1,21.08008,6.43555,17.33061,17.33061,0,0,1,4.39648,3.80371,2.33333,2.33333,0,0,1-.20215,3.40332l-.07812.07813-.09375.05859a3.04755,3.04755,0,0,1-1.626.53516,2.27122,2.27122,0,0,1-1.75-.83887c-5.60449-5.59863-12.92969-8.46289-21.72656-8.46289a24.90067,24.90067,0,0,0-15.05371,4.55762c-4.09082,2.99609-6.08008,6.48535-6.08008,10.666A13.26482,13.26482,0,0,0,539.659,416.239c2.251,2.03418,6.32031,3.83008,12.085,5.32715,1.71191.46582,4.1748,1.06738,7.33105,1.78906,3.18066.72852,5.60938,1.31641,7.21973,1.74609,1.58984.42773,3.71289,1.07617,6.31055,1.92871a24.68644,24.68644,0,0,1,6.22656,2.85156,33.07376,33.07376,0,0,1,4.42383,3.76465c3.0293,2.78418,4.58105,6.96973,4.58105,12.41113,0,6.71289-3.11621,12.46-9.26367,17.08008C572.51641,467.69213,565.10137,470.0017,556.535,470.0017Z" style="fill: #333"/>
          <path d="M556.24493,386.84252a35.17213,35.17213,0,0,1,20.51025,6.25732,16.33154,16.33154,0,0,1,4.17188,3.59229,1.35569,1.35569,0,0,1-.11621,2.08618,2.07694,2.07694,0,0,1-1.08984.37891,1.29076,1.29076,0,0,1-.99561-.49487q-8.80737-8.80554-22.48047-8.80713a25.75877,25.75877,0,0,0-15.644,4.75122q-6.49146,4.75232-6.48975,11.47241a14.33586,14.33586,0,0,0,4.86768,10.89258q3.59033,3.24536,12.51465,5.56226,2.54736.69543,7.35889,1.79565,4.80615,1.103,7.18408,1.738,2.37378.63867,6.25732,1.9126a23.64989,23.64989,0,0,1,5.96826,2.72266,32.008,32.008,0,0,1,4.28711,3.65063q4.2854,3.9408,4.2876,11.70361,0,9.61926-8.86475,16.28125-8.8645,6.665-21.4375,6.66309-12.575,0-24.625-7.4165a33.88872,33.88872,0,0,1-5.3877-3.76587q-1.21729-1.21655-.92676-2.02783a1.56924,1.56924,0,0,1,.98438-1.04321,1.0501,1.0501,0,0,1,.333-.0542,1.79307,1.79307,0,0,1,1.17383.57544q.80859.75586,3.6499,2.8396a51.44836,51.44836,0,0,0,10.08154,5.04053,37.66892,37.66892,0,0,0,14.311,2.95483q11.70264,0,19.75732-5.7937,8.053-5.79346,8.05371-14.25342,0-6.60461-3.82373-9.96558a34.80569,34.80569,0,0,0-3.94043-3.071,23.35849,23.35849,0,0,0-5.44629-2.37524q-4.17187-1.3905-10.48633-2.89722-6.3186-1.504-8.63379-2.1438-2.31885-.635-6.14111-1.91187a23.9918,23.9918,0,0,1-5.85205-2.665,42.60674,42.60674,0,0,1-4.3457-3.47607q-4.17114-3.9386-4.17139-11.646,0-7.70508,7.35791-13.38477a28.257,28.257,0,0,1,17.78809-5.67773m0-2a30.33221,30.33221,0,0,0-19.00977,6.09424c-5.39893,4.1665-8.13623,9.20264-8.13623,14.96826,0,5.68628,1.61426,10.09375,4.79834,13.1001a44.94758,44.94758,0,0,0,4.58789,3.67163,25.63074,25.63074,0,0,0,6.35107,2.91309c2.57422.85938,4.67578,1.51343,6.24463,1.94312,1.59277.43872,4.52051,1.166,8.69922,2.1604,4.1416.98926,7.61328,1.948,10.31689,2.84912a21.69243,21.69243,0,0,1,4.98193,2.15015,32.94174,32.94174,0,0,1,3.709,2.89429c2.12354,1.86646,3.15186,4.635,3.15186,8.47,0,5.00269-2.3623,9.134-7.22168,12.62988-4.99561,3.59473-11.25,5.41724-18.58936,5.41724a35.85148,35.85148,0,0,1-13.55518-2.80664,50.10288,50.10288,0,0,1-9.65283-4.8c-2.28027-1.67432-3.14453-2.38647-3.46875-2.68921a3.71593,3.71593,0,0,0-2.53955-1.1145,3.05312,3.05312,0,0,0-.9624.15576,3.57711,3.57711,0,0,0-2.24023,2.27344c-.47461,1.32227-.00537,2.708,1.39844,4.1106a34.30616,34.30616,0,0,0,5.75879,4.05811,48.62587,48.62587,0,0,0,25.66748,7.70972c8.7876,0,16.40479-2.377,22.63965-7.06445,6.41162-4.81885,9.6626-10.83472,9.6626-17.87988,0-5.71411-1.64941-10.137-4.90234-13.147a34.14186,34.14186,0,0,0-4.53027-3.84912,25.31393,25.31393,0,0,0-6.48584-2.98071c-2.6084-.856-4.74854-1.50977-6.3623-1.94409-1.60156-.42773-4.042-1.01831-7.25635-1.75586-3.15283-.72046-5.60156-1.31763-7.2793-1.77588-5.63086-1.46167-9.55908-3.18091-11.7002-5.11646a12.29565,12.29565,0,0,1-4.209-9.40894c0-3.84009,1.855-7.06494,5.67139-9.85864a23.91744,23.91744,0,0,1,14.4624-4.365c8.62207,0,15.50049,2.67627,21.02734,8.18262a3.28855,3.28855,0,0,0,2.44873,1.11938,4.02484,4.02484,0,0,0,2.1626-.69116l.18652-.11841.15576-.156a3.32583,3.32583,0,0,0,.29053-4.71851,18.175,18.175,0,0,0-4.63721-4.02759,37.27925,37.27925,0,0,0-21.63428-6.603Z" style="fill: #333"/>
        </g>
      </g>
      <g>
        <path d="M642.6624,451.45789a3.78671,3.78671,0,0,1-3.812-3.812V406.75223a3.78671,3.78671,0,0,1,3.812-3.812,3.79864,3.79864,0,0,1,2.73838,1.109,3.6234,3.6234,0,0,1,1.1436,2.703v37.01252h18.78331a3.84719,3.84719,0,0,1,0,7.69314Z" style="fill: #333"/>
        <path d="M690.27852,418.88143V447.6459a3.71511,3.71511,0,0,1-1.10819,2.66839,3.58623,3.58623,0,0,1-2.66922,1.1436,3.63735,3.63735,0,0,1-2.66839-1.109,3.67513,3.67513,0,0,1-1.109-2.703V407.30715a3.186,3.186,0,0,1,1.3519-3.05041,4.04658,4.04658,0,0,1,3.015-.797,3.5806,3.5806,0,0,1,2.42551,1.49022l22.38782,30.9825V407.37631a3.7873,3.7873,0,0,1,3.74283-3.74283,3.71731,3.71731,0,0,1,2.66839,1.109,3.54627,3.54627,0,0,1,1.1436,2.63381V447.6459a3.61956,3.61956,0,0,1-1.1436,2.703,3.79477,3.79477,0,0,1-2.73755,1.109,3.53852,3.53852,0,0,1-2.773-1.38648,1.91165,1.91165,0,0,1-.34662-.41578Z" style="fill: #333"/>
      </g>
    </g>
    <g style="clip-path: url(#a)">
      <path d="M351.37362,409.23026l-22.86671-13.19689a20.62723,20.62723,0,0,0-20.62193.00047L273.95088,415.62A20.62723,20.62723,0,0,0,263.635,433.485v39.1854a20.62723,20.62723,0,0,0,10.31316,17.86344l33.93409,19.593a20.62723,20.62723,0,0,0,20.62735.00045l33.93854-19.5936a20.62723,20.62723,0,0,0,10.31394-17.86389V446.68564a20.62723,20.62723,0,0,1,10.314-17.86393L432.58021,400.242a20.62723,20.62723,0,0,1,20.6256-.00048l.17245.09955a20.62723,20.62723,0,0,1,10.31485,17.86442v59.74744a20.62723,20.62723,0,0,1-10.31672,17.8655L430.69523,508.9081a20.62723,20.62723,0,0,0-10.31672,17.8655v39.18414a20.62723,20.62723,0,0,0,10.31394,17.86389l33.93854,19.5936a20.62723,20.62723,0,0,0,20.62735-.00045l33.93409-19.593a20.62723,20.62723,0,0,0,10.31316-17.86344v-39.1855a20.62723,20.62723,0,0,0-10.31574-17.86493l-22.67762-13.08933a20.62723,20.62723,0,0,1-10.31574-17.86493V418.00736a20.62723,20.62723,0,0,1,10.31445-17.86419h0a20.62723,20.62723,0,0,1,20.62649.00053l49.671,28.67792A20.62723,20.62723,0,0,1,577.122,446.68527V472.7797a20.62723,20.62723,0,0,0,10.31394,17.86389l33.93854,19.5936a20.62723,20.62723,0,0,0,20.62735-.00045l33.93409-19.593a20.62723,20.62723,0,0,0,10.31316-17.86344v-39.1854a20.62723,20.62723,0,0,0-10.31586-17.865l-33.934-19.58611a20.62723,20.62723,0,0,0-20.6221-.00037L598.6066,409.28508a20.62723,20.62723,0,0,1-20.62423-.0016l-49.58367-28.62675A20.62723,20.62723,0,0,1,518.085,362.793v-.00872a20.62723,20.62723,0,0,1,10.31407-17.864l49.49483-28.57415a20.62723,20.62723,0,0,1,20.626-.00019l22.68448,13.09554a20.62723,20.62723,0,0,0,20.62688-.00072l33.9344-19.59318a20.62723,20.62723,0,0,0,10.31316-17.86344v-39.1854a20.62723,20.62723,0,0,0-10.31586-17.865l-33.93409-19.58616a20.62723,20.62723,0,0,0-20.622-.00045l-33.93854,19.58676a20.62723,20.62723,0,0,0-10.31664,17.86545v26.19121a20.62723,20.62723,0,0,1-10.31357,17.86368l-49.31471,28.472a20.62723,20.62723,0,0,1-20.62624.00062l-.186-.10739a20.62723,20.62723,0,0,1-10.31465-17.8643V250.40953a20.62723,20.62723,0,0,1,10.31319-17.86346l22.68272-13.09659A20.62723,20.62723,0,0,0,529.50559,201.586V162.40064a20.62723,20.62723,0,0,0-10.31586-17.865l-33.93409-19.58616a20.62723,20.62723,0,0,0-20.622-.00045l-33.93854,19.58676a20.62723,20.62723,0,0,0-10.31664,17.86545v39.184a20.62723,20.62723,0,0,0,10.31417,17.864l22.68626,13.097a20.62723,20.62723,0,0,1,10.31417,17.864v56.74679a20.62723,20.62723,0,0,1-10.315,17.86453l-.35847.20692a20.62723,20.62723,0,0,1-20.62536-.00057l-49.14776-28.37385a20.62723,20.62723,0,0,1-10.31406-17.864V252.79932a20.62723,20.62723,0,0,0-10.31664-17.86545l-33.93854-19.58676a20.62723,20.62723,0,0,0-20.622.00045l-33.93409,19.58616a20.62723,20.62723,0,0,0-10.31586,17.865v39.1854a20.62723,20.62723,0,0,0,10.31316,17.86344l33.93392,19.5929a20.62723,20.62723,0,0,0,20.62761.0003l22.68427-13.09665a20.62723,20.62723,0,0,1,20.62731.00013l49.15618,28.38088a20.62723,20.62723,0,0,1,10.31347,17.86362v.39935a20.62723,20.62723,0,0,1-10.31361,17.8637l-49.14984,28.3767A20.62723,20.62723,0,0,1,351.37362,409.23026Zm248.25174,31.7361a10.89964,10.89964,0,0,1,5.45194-9.44059l5.716-3.2984,15.44637-8.91469a10.89964,10.89964,0,0,1,10.89712.00028l21.15811,12.2126a10.89964,10.89964,0,0,1,5.45084,9.43995v24.444a10.89964,10.89964,0,0,1-5.44841,9.43855L637.139,487.068a10.89964,10.89964,0,0,1-10.90175.0004l-21.16281-12.22047a10.89964,10.89964,0,0,1-5.44911-9.439V440.96636ZM286.30871,284.61331v-24.444a10.89964,10.89964,0,0,1,5.45084-9.43995l21.15825-12.21268a10.89964,10.89964,0,0,1,10.8969-.0004l21.16281,12.21322a10.89964,10.89964,0,0,1,5.45154,9.44035V284.613a10.89964,10.89964,0,0,1-5.44877,9.43876l-5.80086,3.35-15.36236,8.8706a10.89964,10.89964,0,0,1-10.90157-.00051l-21.15838-12.22A10.89964,10.89964,0,0,1,286.30871,284.61331ZM344.80962,474.738l-21.16281,12.22047a10.89964,10.89964,0,0,1-10.90175-.0004L291.5868,474.73814a10.89964,10.89964,0,0,1-5.44841-9.43855v-24.444a10.89964,10.89964,0,0,1,5.45084-9.43995l21.15814-12.21262a10.89964,10.89964,0,0,1,10.89706-.00031l15.54185,8.96968,5.6206,3.24344a10.89964,10.89964,0,0,1,5.45185,9.44053v24.44265A10.89964,10.89964,0,0,1,344.80962,474.738Zm156.74419,93.28806L480.39556,580.246a10.89964,10.89964,0,0,1-10.90175.0004L448.331,568.02593a10.89964,10.89964,0,0,1-5.44911-9.439V534.14421a10.89964,10.89964,0,0,1,5.45169-9.44044L463.69311,515.84l5.8033-3.34936a10.89964,10.89964,0,0,1,10.89678,0l5.8033,3.34936,15.35512,8.86356a10.89964,10.89964,0,0,1,5.45061,9.43982v24.44414A10.89964,10.89964,0,0,1,501.55381,568.02607Zm97.90125-290.11971V260.16988a10.89964,10.89964,0,0,1,5.45154-9.44035L626.0694,238.5163a10.89964,10.89964,0,0,1,10.8969.0004l21.15825,12.21268a10.89964,10.89964,0,0,1,5.45084,9.43995v24.444a10.89964,10.89964,0,0,1-5.44841,9.43855l-21.15838,12.22a10.89964,10.89964,0,0,1-10.90157.00051l-15.36236-8.8706-5.80086-3.35a10.89964,10.89964,0,0,1-5.44877-9.43876ZM448.33342,160.33144l21.16281-12.21322a10.89964,10.89964,0,0,1,10.8969.0004l21.15825,12.21268a10.89964,10.89964,0,0,1,5.45084,9.43995V194.215a10.89964,10.89964,0,0,1-5.44874,9.43874l-15.357,8.86869-5.801,3.35087a10.89964,10.89964,0,0,1-10.902.001l-5.80042-3.34912-15.36234-8.87147a10.89964,10.89964,0,0,1-5.44889-9.43883V169.77179A10.89964,10.89964,0,0,1,448.33342,160.33144Z" style="fill: #efefef"/>
    </g>
    <polygon points="488.228 622.917 443.228 682.917 473.228 682.917 458.228 727.917 503.228 667.917 473.228 667.917 488.228 622.917" style="fill: #28e8e8"/>
  </g>
</svg>
