<svg xmlns="http://www.w3.org/2000/svg" width="948.57959" height="855.92894" viewBox="0 0 948.57959 855.92894">
  <title>powered-by-elmsln-sticker-2</title>
  <g>
    <g>
      <path d="M474.28985,805.33632a90.94474,90.94474,0,0,1-45.416-12.16992L180.72344,649.89785a91.08623,91.08623,0,0,1-45.416-78.66406V284.69472a91.08623,91.08623,0,0,1,45.416-78.66406l248.15039-143.269a90.83358,90.83358,0,0,1,90.832,0l248.15039,143.269a91.08623,91.08623,0,0,1,45.416,78.66406V571.23378a91.08623,91.08623,0,0,1-45.416,78.66406L519.70586,793.16738A90.95383,90.95383,0,0,1,474.28985,805.33632Z" style="fill: #333"/>
      <path d="M474.28985,58.59258a82.77958,82.77958,0,0,1,41.416,11.09747L763.85625,212.9598a82.83258,82.83258,0,0,1,41.4165,71.73494V571.2342a82.83258,82.83258,0,0,1-41.4165,71.73494L515.70586,786.23888a82.83148,82.83148,0,0,1-82.832,0L184.723,642.96914a82.83213,82.83213,0,0,1-41.416-71.73494V284.69474a82.83213,82.83213,0,0,1,41.416-71.73494L432.87383,69.69005a82.77958,82.77958,0,0,1,41.416-11.09747m0-16a98.96278,98.96278,0,0,0-49.416,13.24106L176.723,199.10341a99.10683,99.10683,0,0,0-49.416,85.59132V571.2342a99.10686,99.10686,0,0,0,49.416,85.59134L424.87383,800.09526a98.83153,98.83153,0,0,0,98.832,0L771.85625,656.82554a99.10766,99.10766,0,0,0,49.4165-85.59134V284.69474a99.10762,99.10762,0,0,0-49.4165-85.59132L523.70586,55.83367a98.96278,98.96278,0,0,0-49.416-13.24106Z" style="fill: #efefef"/>
    </g>
    <g>
      <path d="M135.30743,499.23378V284.69472a91.08345,91.08345,0,0,1,45.416-78.66309l248.15039-143.27a90.83358,90.83358,0,0,1,90.832,0l248.15039,143.27a91.08345,91.08345,0,0,1,45.416,78.66309V499.23378Z" style="fill: #7c7c7c"/>
      <path d="M474.28985,58.59261A82.77906,82.77906,0,0,1,515.70586,69.69l248.15039,143.2699a82.8325,82.8325,0,0,1,41.4165,71.73486v206.5395H143.30694V284.69472a82.832,82.832,0,0,1,41.416-71.73486L432.87383,69.69a82.77906,82.77906,0,0,1,41.416-11.09735m0-16a98.96439,98.96439,0,0,0-49.416,13.241L176.723,199.10347a99.10659,99.10659,0,0,0-49.416,85.59125v222.5395H821.27276V284.69472a99.10735,99.10735,0,0,0-49.4165-85.59125L523.70586,55.83361a98.963,98.963,0,0,0-49.416-13.241Z" style="fill: #efefef"/>
    </g>
    <g>
      <path d="M327.77911,555.53359h12.68555a16.24538,16.24538,0,0,1,5.71289.89355,10.838,10.838,0,0,1,3.91113,2.43164,9.42866,9.42866,0,0,1,2.25586,3.57422,13.40867,13.40867,0,0,1,.01465,8.61328,9.181,9.181,0,0,1-2.19727,3.501,10.61424,10.61424,0,0,1-3.82324,2.373,15.82816,15.82816,0,0,1-5.58105.87891h-6.123V592.9164h-6.85547Zm6.85547,5.94727v10.60547h5.625a7.98859,7.98859,0,0,0,2.666-.39551,5.038,5.038,0,0,0,1.83105-1.084,4.18415,4.18415,0,0,0,1.05469-1.626,6.02336,6.02336,0,0,0,.33691-2.05078,6.4711,6.4711,0,0,0-.35156-2.168,4.64472,4.64472,0,0,0-1.06934-1.72852,4.89494,4.89494,0,0,0-1.81641-1.14258,7.40921,7.40921,0,0,0-2.59277-.41016Z" style="fill: #efefef"/>
      <path d="M384.84942,594.00039a11.779,11.779,0,0,1-5.918-1.47949,13.15341,13.15341,0,0,1-4.40918-4.13086,20.18072,20.18072,0,0,1-2.75391-6.29883,31.43533,31.43533,0,0,1-.95215-7.9541,30.16767,30.16767,0,0,1,.98145-7.93945,19.36537,19.36537,0,0,1,2.8125-6.18164,13.25432,13.25432,0,0,1,4.43848-4.01367,11.94441,11.94441,0,0,1,5.85938-1.43555,12.06344,12.06344,0,0,1,9.74121,4.834,18.67287,18.67287,0,0,1,3.00293,6.123,30.16625,30.16625,0,0,1,1.11328,8.67188,34.18738,34.18738,0,0,1-.55664,6.47461,23.88206,23.88206,0,0,1-1.52344,5.06836,15.51041,15.51041,0,0,1-2.28516,3.76465,12.78579,12.78579,0,0,1-2.87109,2.56348,11.82345,11.82345,0,0,1-3.252,1.46484A12.83489,12.83489,0,0,1,384.84942,594.00039Zm-7.08984-20.21484a31.1564,31.1564,0,0,0,.52734,6.06445,16.18282,16.18282,0,0,0,1.47949,4.42383,7.48383,7.48383,0,0,0,2.25586,2.69531,4.93643,4.93643,0,0,0,2.88574.9082,5.37663,5.37663,0,0,0,2.59277-.67383,5.81785,5.81785,0,0,0,2.18262-2.28516,14.7236,14.7236,0,0,0,1.50879-4.2627,31.88752,31.88752,0,0,0,.57129-6.57715,27.73088,27.73088,0,0,0-.61523-6.32812,14.70054,14.70054,0,0,0-1.582-4.1748,6.38161,6.38161,0,0,0-2.18262-2.2998,4.79708,4.79708,0,0,0-2.417-.70312,6.10329,6.10329,0,0,0-2.73926.64453,5.95816,5.95816,0,0,0-2.2998,2.168,12.647,12.647,0,0,0-1.582,4.05762A28.779,28.779,0,0,0,377.75957,573.78554Z" style="fill: #efefef"/>
      <path d="M415.14239,555.53359h6.5625l2.13867,24.668,4.39453-21.5918h4.30664l4.39453,21.416,1.55273-24.49219h6.24023l-4.45312,37.38281h-5.27344L430.08379,570.182l-4.98047,22.73438H419.7127Z" style="fill: #efefef"/>
      <path d="M463.16,555.53359h24.3457v5.77148h-17.8125v9.22852h14.76563v5.88867H469.69317v10.72266h17.69531v5.77148H463.16Z" style="fill: #efefef"/>
      <path d="M507.60332,555.53359h11.83594a19.39153,19.39153,0,0,1,5.96191.80566,10.78712,10.78712,0,0,1,4.05762,2.27051,8.71385,8.71385,0,0,1,2.31445,3.51563,13.5154,13.5154,0,0,1,.73242,4.57031,9.76761,9.76761,0,0,1-.5127,3.07617,11.73367,11.73367,0,0,1-1.43555,2.915,10.515,10.515,0,0,1-2.25586,2.40234,9.60906,9.60906,0,0,1-2.94434,1.56738L534.117,592.9164H526.5584L518.824,577.44765h-4.36523V592.9164h-6.85547Zm6.85547,5.94727v10.25391h5.39063a8.22114,8.22114,0,0,0,2.59277-.36621,4.81823,4.81823,0,0,0,1.80176-1.02539,4.01452,4.01452,0,0,0,1.04-1.59668,6.02336,6.02336,0,0,0,.33691-2.05078,5.13268,5.13268,0,0,0-1.377-3.92578,6.28494,6.28494,0,0,0-4.39453-1.28906Z" style="fill: #efefef"/>
      <path d="M553.16,555.53359h24.3457v5.77148h-17.8125v9.22852h14.76563v5.88867H559.69317v10.72266h17.69531v5.77148H553.16Z" style="fill: #efefef"/>
      <path d="M597.42754,555.53359h9.668a24.42031,24.42031,0,0,1,4.39453.35156,14.71724,14.71724,0,0,1,3.36914,1.01074,10.70372,10.70372,0,0,1,2.59277,1.626,13.64968,13.64968,0,0,1,2.06543,2.22656,18.39811,18.39811,0,0,1,2.87109,6.02051,31.30062,31.30062,0,0,1,.01465,15.38086,14.80306,14.80306,0,0,1-3.01758,5.80078,13.46036,13.46036,0,0,1-5.28809,3.67676,20.81531,20.81531,0,0,1-7.73437,1.28906h-8.93555Zm6.5332,5.5957V587.643h2.28516q5.30273,0,7.83691-3.35449t2.53418-9.624a26.92364,26.92364,0,0,0-.542-5.66895,12.13024,12.13024,0,0,0-1.72852-4.2627,7.84327,7.84327,0,0,0-3.03223-2.68066,9.86844,9.86844,0,0,0-4.45312-.92285Z" style="fill: #efefef"/>
    </g>
    <polygon points="488.228 622.917 443.228 682.917 473.228 682.917 458.228 727.917 503.228 667.917 473.228 667.917 488.228 622.917" style="fill: #28e8e8"/>
    <path d="M547.35306,268.27792l13.52058,7.803a12.19642,12.19642,0,0,0,12.19329-.00028L593.1314,264.4998a12.19642,12.19642,0,0,0,6.09954-10.56318V230.76717a12.19642,12.19642,0,0,0-6.09794-10.56226L573.06853,208.62a12.19642,12.19642,0,0,0-12.19649-.00027L540.80493,220.205a12.19642,12.19642,0,0,0-6.0984,10.56252v15.36387a12.19642,12.19642,0,0,1-6.09844,10.56255L499.33741,273.5925a12.19642,12.19642,0,0,1-12.19546.00029l-.102-.05886a12.19642,12.19642,0,0,1-6.09894-10.56283V227.64376a12.19642,12.19642,0,0,1,6.1-10.56347l13.41086-7.73965a12.19642,12.19642,0,0,0,6.1-10.56347V175.60845a12.19642,12.19642,0,0,0-6.0984-10.56252l-20.06711-11.58526a12.19642,12.19642,0,0,0-12.19649.00027l-20.06447,11.5849a12.19642,12.19642,0,0,0-6.09794,10.56226v23.16951a12.19642,12.19642,0,0,0,6.09947,10.56314l13.40878,7.73943a12.19642,12.19642,0,0,1,6.09947,10.56314v35.44491a12.19642,12.19642,0,0,1-6.0987,10.5627h0a12.19642,12.19642,0,0,1-12.196-.00032L419.97122,256.694a12.19642,12.19642,0,0,1-6.09816-10.56238V230.70255a12.19642,12.19642,0,0,0-6.0984-10.56252l-20.06711-11.58526a12.19642,12.19642,0,0,0-12.19649.00027l-20.06447,11.5849a12.19642,12.19642,0,0,0-6.09794,10.56226v23.16946a12.19642,12.19642,0,0,0,6.09954,10.56318l20.06442,11.58083a12.19642,12.19642,0,0,0,12.19339.00022l13.46371-7.77038a12.19642,12.19642,0,0,1,12.19465.00095l29.31772,16.92636a12.19642,12.19642,0,0,1,6.09828,10.56245v.00515a12.19642,12.19642,0,0,1-6.09848,10.56257l-29.26519,16.89526a12.19642,12.19642,0,0,1-12.19568.00011l-13.41283-7.7431a12.19642,12.19642,0,0,0-12.19622.00043l-20.06466,11.585a12.19642,12.19642,0,0,0-6.09794,10.56226v23.16946a12.19642,12.19642,0,0,0,6.09954,10.56318l20.06447,11.58086a12.19642,12.19642,0,0,0,12.1933.00027l20.06711-11.58122a12.19642,12.19642,0,0,0,6.1-10.56344V345.28578a12.19642,12.19642,0,0,1,6.09818-10.5624l29.15869-16.83487a12.19642,12.19642,0,0,1,12.19584-.00037l.11.0635a12.19642,12.19642,0,0,1,6.09882,10.56276v33.67069a12.19642,12.19642,0,0,1-6.098,10.56227l-13.41179,7.74372a12.19642,12.19642,0,0,0-6.098,10.56227v23.16944a12.19642,12.19642,0,0,0,6.09954,10.56318l20.06447,11.58086a12.19642,12.19642,0,0,0,12.1933.00027L500.452,424.78588a12.19642,12.19642,0,0,0,6.1-10.56344V391.05379a12.19642,12.19642,0,0,0-6.09854-10.5626l-13.41388-7.74395a12.19642,12.19642,0,0,1-6.09854-10.5626V328.63152a12.19642,12.19642,0,0,1,6.09905-10.5629l.212-.12235a12.19642,12.19642,0,0,1,12.19532.00033l29.06,16.77682a12.19642,12.19642,0,0,1,6.09847,10.56256v15.48606a12.19642,12.19642,0,0,0,6.1,10.56344l20.06711,11.58122a12.19642,12.19642,0,0,0,12.1933-.00027l20.06447-11.58086a12.19642,12.19642,0,0,0,6.09954-10.56318V337.603a12.19642,12.19642,0,0,0-6.09794-10.56226l-20.06437-11.58485a12.19642,12.19642,0,0,0-12.19665-.00018l-13.41271,7.74376a12.19642,12.19642,0,0,1-12.19647-.00007l-29.065-16.781A12.19642,12.19642,0,0,1,499.999,295.856v-.23613a12.19642,12.19642,0,0,1,6.09821-10.56241L535.15844,268.279A12.19642,12.19642,0,0,1,547.35306,268.27792ZM400.56732,249.51307a6.44471,6.44471,0,0,1-3.22361,5.582l-3.37972,1.95027-9.1331,5.27106a6.44471,6.44471,0,0,1-6.44322-.00017l-12.51032-7.221a6.44471,6.44471,0,0,1-3.223-5.58163V235.0604a6.44471,6.44471,0,0,1,3.22152-5.5808l12.5104-7.22537a6.44471,6.44471,0,0,1,6.446-.00024l12.5131,7.22569a6.44471,6.44471,0,0,1,3.22194,5.581v14.45235ZM585.8245,341.96116v14.45317a6.44471,6.44471,0,0,1-3.223,5.58163l-12.5104,7.22109a6.44471,6.44471,0,0,1-6.4431.00024l-12.5131-7.22141a6.44471,6.44471,0,0,1-3.22337-5.58187V341.96132a6.44471,6.44471,0,0,1,3.22174-5.58093l3.42992-1.98077,9.08342-5.245a6.44471,6.44471,0,0,1,6.44586.0003l12.51048,7.22542A6.44471,6.44471,0,0,1,585.8245,341.96116ZM551.23421,229.54465l12.5131-7.22569a6.44471,6.44471,0,0,1,6.446.00024l12.5104,7.22537a6.44471,6.44471,0,0,1,3.22152,5.5808v14.45317a6.44471,6.44471,0,0,1-3.223,5.58163l-12.51034,7.221a6.44471,6.44471,0,0,1-6.44319.00018l-9.18955-5.30357-3.32334-1.91778a6.44471,6.44471,0,0,1-3.22356-5.582V235.12569A6.44471,6.44471,0,0,1,551.23421,229.54465Zm-92.67935-55.15915,12.5104-7.22537a6.44471,6.44471,0,0,1,6.446-.00024l12.5131,7.22569a6.44471,6.44471,0,0,1,3.22194,5.581v14.45246a6.44471,6.44471,0,0,1-3.22346,5.58192L480.941,205.242l-3.43136,1.98041a6.44471,6.44471,0,0,1-6.443,0L467.6353,205.242l-9.07914-5.24082a6.44471,6.44471,0,0,1-3.22283-5.58156V179.9663A6.44471,6.44471,0,0,1,458.55485,174.38549ZM400.668,345.92683V356.414a6.44471,6.44471,0,0,1-3.22337,5.58187l-12.5131,7.22141a6.44471,6.44471,0,0,1-6.4431-.00024L365.978,361.996a6.44471,6.44471,0,0,1-3.223-5.58163V341.96116a6.44471,6.44471,0,0,1,3.22152-5.5808l12.51048-7.22542a6.44471,6.44471,0,0,1,6.44586-.0003l9.08342,5.245,3.42992,1.98077a6.44471,6.44471,0,0,1,3.22174,5.58093Zm89.35486,69.51943-12.5131,7.22141a6.44471,6.44471,0,0,1-6.4431-.00024l-12.5104-7.22109a6.44471,6.44471,0,0,1-3.223-5.58163v-14.453a6.44471,6.44471,0,0,1,3.22172-5.58092l9.08025-5.24386,3.43-1.98129a6.44471,6.44471,0,0,1,6.44609-.00059l3.42966,1.98026,9.08341,5.2455a6.44471,6.44471,0,0,1,3.22181,5.581v14.45264A6.44471,6.44471,0,0,1,490.02289,415.44626Z" style="fill: #fff"/>
  </g>
</svg>
